<?xml version="1.0" standalone="no"?>
<!DOCTYPE svg PUBLIC "-//W3C//DTD SVG 1.1//EN" "http://www.w3.org/Graphics/SVG/1.1/DTD/svg11.dtd" >
<svg xmlns="http://www.w3.org/2000/svg">
<metadata></metadata>
<defs>
<font id="misolight" horiz-adv-x="851" >
<font-face units-per-em="2048" ascent="1638" descent="-410" />
<missing-glyph horiz-adv-x="393" />
<glyph horiz-adv-x="2048" />
<glyph horiz-adv-x="2048" />
<glyph unicode="&#xd;" horiz-adv-x="2048" />
<glyph unicode=" "  horiz-adv-x="393" />
<glyph unicode="&#x09;" horiz-adv-x="393" />
<glyph unicode="&#xa0;" horiz-adv-x="393" />
<glyph unicode="!" horiz-adv-x="409" d="M145 78q0 25 17.5 42t42.5 17t43 -17t18 -42t-18 -42.5t-43 -17.5t-42.5 17.5t-17.5 42.5zM166 385v819q0 17 11.5 28t27.5 11q17 0 29 -11t12 -28v-819q0 -17 -12 -28t-29 -11q-16 0 -27.5 11t-11.5 28z" />
<glyph unicode="&#x22;" horiz-adv-x="720" d="M158 1040v205q0 17 11 28t28 11t28 -11t11 -28v-205q0 -17 -11 -28t-28 -11t-28 11t-11 28zM485 1040v205q0 17 11 28t28 11t28 -11t11 -28v-205q0 -17 -11 -28t-28 -11t-28 11t-11 28z" />
<glyph unicode="#" horiz-adv-x="937" d="M61 508q0 17 11.5 28t27.5 11h166v250h-166q-16 0 -27.5 11t-11.5 28t11.5 27.5t27.5 10.5h166v371q0 17 11.5 28t27.5 11q17 0 28 -11t11 -28v-371h250v371q0 17 11.5 28t27.5 11q17 0 28 -11t11 -28v-371h166q17 0 28 -10.5t11 -27.5t-11 -28t-28 -11h-166v-250h166 q17 0 28 -11t11 -28t-11 -28t-28 -11h-166v-412q0 -17 -11 -28t-28 -11q-16 0 -27.5 11t-11.5 28v412h-250v-412q0 -17 -11 -28t-28 -11q-16 0 -27.5 11t-11.5 28v412h-166q-16 0 -27.5 11t-11.5 28zM344 547h250v250h-250v-250z" />
<glyph unicode="$" d="M174 236q-7 15 -3.5 30.5t17.5 24.5q13 8 30 3t24 -18q60 -98 168 -98h2q80 0 137.5 59.5t54.5 137.5q0 91 -72 147l-256 211q-95 76 -98 203q0 98 65 173t160 91v127q0 17 12 28t29 11q16 0 27.5 -11t11.5 -28v-127q1 0 3 -1t3 -1q23 -4 44.5 -11.5t41.5 -19t37.5 -26 t32.5 -32.5t27 -38q7 -13 5.5 -25t-10 -20.5t-19.5 -12t-23.5 0.5t-20.5 16q-24 43 -65.5 68.5t-94.5 25.5h-2q-76 0 -131.5 -57t-52.5 -131q0 -86 68 -141l258 -211q30 -25 52.5 -58t34.5 -71.5t13 -79.5q0 -102 -67.5 -179.5t-165.5 -93.5v-127q0 -17 -11.5 -27.5 t-27.5 -10.5q-18 0 -29.5 10.5t-11.5 27.5v127q-4 0 -6 2q-59 9 -109.5 44t-81.5 88z" />
<glyph unicode="%" horiz-adv-x="1214" d="M100 1061q0 92 65 156.5t157 64.5t156.5 -64.5t64.5 -156.5t-64.5 -156.5t-156.5 -64.5t-157 64.5t-65 156.5zM174 1061q0 -61 43 -104.5t105 -43.5q61 0 104 43t43 105q0 61 -42.5 104t-104.5 43t-105 -43t-43 -104zM287 74l573 1188q6 15 22 20.5t29 -2.5q15 -6 21 -22 t-2 -29l-574 -1188q-6 -15 -22 -20.5t-29 2.5q-15 6 -20.5 22t2.5 29zM674 242q0 92 64.5 156.5t156.5 64.5t156.5 -64.5t64.5 -156.5t-64.5 -157t-156.5 -65t-156.5 65t-64.5 157zM748 242q0 -62 43 -105t104 -43t104 43t43 105t-43 104.5t-104 42.5t-104 -42.5t-43 -104.5 z" />
<glyph unicode="&#x26;" horiz-adv-x="1009" d="M184 477l176 230l-151 196l-2 2q-38 58 -40.5 126.5t30.5 127.5q34 60 94 94t129 31q44 -1 85.5 -18.5t74 -48.5t51.5 -72q29 -63 21.5 -130.5t-48.5 -123.5l-143 -184q211 -274 244 -316l81 137q8 14 24 18t30 -5q13 -7 17.5 -24t-3.5 -30l-98 -163l170 -222 q10 -14 8 -30t-14 -25q-12 -10 -28.5 -8t-27.5 14l-151 199l-58 -96q-22 -37 -56 -66t-76 -47t-87 -23.5t-94 6.5t-92 42q-62 42 -95.5 111t-27.5 149.5t57 148.5zM207 270q12 -86 88 -137q40 -28 84 -35t82.5 4.5t71.5 36t55 58.5l71 120q-67 88 -247 324l-164 -211 q-56 -75 -41 -160zM266 1120q-23 -40 -21.5 -86t27.5 -84l140 -180l129 170q29 37 34.5 83t-14.5 87q-28 58 -85.5 82t-117.5 4.5t-92 -76.5z" />
<glyph unicode="'" horiz-adv-x="393" d="M156 1040v205q0 17 12 28t29 11q16 0 27.5 -11t11.5 -28v-205q0 -17 -11.5 -28t-27.5 -11q-17 0 -29 11t-12 28z" />
<glyph unicode="(" horiz-adv-x="548" d="M141 651q0 210 68 408q68 204 201 375q11 12 27 14t28 -8q13 -9 15 -26.5t-7 -29.5q-125 -158 -190 -350q-64 -183 -64 -383t64 -383q67 -198 190 -350q9 -13 7 -29.5t-15 -25.5q-12 -10 -28 -8t-27 14q-133 171 -201 375q-68 198 -68 407z" />
<glyph unicode=")" horiz-adv-x="550" d="M76 -61q116 144 185 331t69 402t-68.5 400.5t-185.5 332.5q-9 12 -7.5 29t13.5 26q14 10 30 8t25 -14q136 -175 203 -375q68 -198 68 -407q0 -210 -68 -408q-67 -200 -203 -375q-9 -12 -25 -14t-30 8q-12 9 -13.5 26t7.5 30z" />
<glyph unicode="*" d="M141 817l211 121l-211 121q-12 7 -16.5 18.5t-0.5 22t11.5 19.5t19 10.5t23.5 -5.5l211 -120v241q0 15 11 26t26 11t26 -11t11 -26v-241l211 120q12 6 24 4.5t19.5 -10.5t11 -19.5t-1 -21.5t-16.5 -18l-209 -121l209 -121q12 -7 16.5 -18t1 -21.5t-11 -19.5t-19.5 -10.5 t-24 4.5l-211 120v-241q0 -15 -11 -26t-26 -11t-26 11t-11 26v241l-211 -120q-12 -7 -23.5 -5.5t-19 10.5t-11.5 19.5t0.5 22t16.5 18.5z" />
<glyph unicode="+" d="M141 590q0 17 11 28t28 11h207v207q0 17 11 27.5t28 10.5q16 0 27.5 -10.5t11.5 -27.5v-207h207q16 0 27.5 -11t11.5 -28t-11.5 -28t-27.5 -11h-207v-207q0 -17 -11.5 -28t-27.5 -11q-17 0 -28 11t-11 28v207h-207q-17 0 -28 11t-11 28z" />
<glyph unicode="," horiz-adv-x="393" d="M127 98q0 15 11 26t26 11h65q15 0 26 -11t11 -26v-98q0 -44 -24 -80t-64 -53q-21 -9 -36.5 4.5t-14 35t22.5 30.5q43 16 43 63v61h-29q-15 0 -26 11t-11 26z" />
<glyph unicode="-" d="M139 590q0 17 12 28t29 11h492q16 0 27.5 -11t11.5 -28t-11.5 -28t-27.5 -11h-492q-17 0 -29 11t-12 28z" />
<glyph unicode="." horiz-adv-x="393" d="M137 78q0 25 17.5 42t42.5 17t42 -17t17 -42t-17 -42.5t-42 -17.5t-42.5 17.5t-17.5 42.5z" />
<glyph unicode="/" d="M143 -10l492 1351q10 21 32 23.5t36.5 -13t5.5 -38.5l-492 -1352q-7 -23 -28 -24.5t-37 15t-9 38.5z" />
<glyph unicode="0" d="M139 303v696q0 118 84 201.5t203 83.5q117 0 201 -83.5t84 -201.5v-696q0 -118 -84 -201.5t-201 -83.5q-119 0 -203 83.5t-84 201.5zM219 303q0 -86 60.5 -146.5t146.5 -60.5q85 0 145 60.5t60 146.5v696q0 86 -60 146.5t-145 60.5q-86 0 -146.5 -60.5t-60.5 -146.5v-696 z" />
<glyph unicode="1" d="M201 971q-11 12 -11 28.5t11 28.5l245 246q21 17 44.5 6.5t23.5 -35.5v-1188q0 -17 -11.5 -28t-27.5 -11q-17 0 -28 11t-11 28v1094l-180 -180q-10 -11 -26.5 -11t-28.5 11z" />
<glyph unicode="2" d="M154 45q-10 19 0 39l430 819q39 76 14 156q-20 72 -92.5 117.5t-159.5 21.5q-80 -21 -123 -96q-9 -14 -25 -18t-30 3q-14 9 -18 25t4 31q63 101 170 131q64 17 121.5 7t104 -39t79 -71t45.5 -90q34 -107 -21 -215q-348 -662 -399 -762h393q16 0 27.5 -10.5t11.5 -27.5 t-11.5 -28t-27.5 -11h-459q-22 0 -34 18z" />
<glyph unicode="3" d="M125 160q-7 15 -3.5 30.5t17.5 24.5q15 7 31 3t25 -17q34 -61 98.5 -88.5t132.5 -8.5q68 17 111 73t43 126v123q0 86 -60.5 146.5t-146.5 60.5q-17 0 -28 11t-11 28t11 28t28 11q86 0 146.5 60.5t60.5 146.5v81q0 69 -43.5 125.5t-110.5 73.5q-68 19 -132.5 -8t-98.5 -88 q-9 -14 -25 -18t-31 3q-14 9 -17.5 25t3.5 31q50 84 139 120.5t182 10.5q94 -25 152.5 -101.5t58.5 -173.5v-81q0 -77 -38.5 -143t-102.5 -103q64 -37 102.5 -103t38.5 -143v-123q0 -97 -58.5 -173.5t-152.5 -102.5q-93 -25 -182 12t-139 121z" />
<glyph unicode="4" d="M115 356l286 901q6 19 24.5 24.5t35 -5t16.5 -31.5q0 -4 -58.5 -190t-133.5 -420.5t-80 -251.5h317v248q0 17 11 28t28 11t28 -11t11 -28v-248h125q17 0 28 -11t11 -28t-11 -28t-28 -11h-125v-248q0 -17 -11 -28t-28 -11t-28 11t-11 28v248h-370q-19 0 -33 17 q-10 16 -4 34z" />
<glyph unicode="5" d="M172 651v586q0 17 11.5 28t27.5 11h426q17 0 28 -11t11 -28t-11 -28t-28 -11h-387v-444q54 41 117.5 54t130.5 -5q94 -25 152.5 -101.5t58.5 -173.5v-225q0 -97 -58.5 -173.5t-152.5 -102.5q-94 -25 -183.5 12.5t-136.5 120.5q-12 20 0 39t32 20t36 -18q35 -62 99.5 -89 t131.5 -8q68 17 111 73t43 126v225q0 69 -43.5 125.5t-110.5 73.5q-68 19 -132 -8t-99 -88q-18 -25 -45 -19q-29 11 -29 39z" />
<glyph unicode="6" d="M160 303v696q0 97 58.5 173.5t152.5 101.5q93 26 182 -10.5t139 -120.5q8 -15 4 -31t-18 -25q-14 -7 -30 -3t-25 18q-34 61 -99 88t-133 8q-67 -17 -110 -73.5t-43 -125.5v-294q85 88 206 88q118 0 201.5 -83.5t83.5 -201.5v-205q0 -119 -83.5 -202t-201.5 -83t-201 83 t-83 202zM238 303q0 -86 60.5 -146.5t145.5 -60.5q86 0 146.5 60.5t60.5 146.5v205q0 86 -60.5 146.5t-146.5 60.5q-85 0 -145.5 -60.5t-60.5 -146.5v-205z" />
<glyph unicode="7" d="M135 1073v164q0 17 11.5 28t27.5 11h492q19 0 30.5 -15t8.5 -34l-287 -1180q-5 -15 -17.5 -22.5t-26 -6t-24 11.5t-10.5 27q0 4 129 537t147 604h-403v-125q0 -17 -11 -28t-28 -11q-16 0 -27.5 11t-11.5 28z" />
<glyph unicode="8" d="M141 303v123q0 77 39 143t103 103q-64 37 -103 103t-39 143v81q0 118 84 201.5t201 83.5q119 0 203 -83.5t84 -201.5v-81q0 -77 -39 -143t-103 -103q64 -37 103 -103t39 -143v-123q0 -118 -84 -201.5t-203 -83.5q-117 0 -201 83.5t-84 201.5zM221 303q0 -86 60 -146.5 t145 -60.5q86 0 146.5 60.5t60.5 146.5v123q0 86 -60.5 146.5t-146.5 60.5q-85 0 -145 -60.5t-60 -146.5v-123zM221 918q0 -86 60 -146.5t145 -60.5q86 0 146.5 60.5t60.5 146.5v81q0 86 -60.5 146.5t-146.5 60.5q-85 0 -145 -60.5t-60 -146.5v-81z" />
<glyph unicode="9" d="M123 795v204q0 118 84 201.5t201 83.5q119 0 202.5 -83.5t83.5 -201.5v-696q0 -96 -59.5 -173t-153.5 -103q-92 -25 -182 12.5t-137 120.5q-7 15 -3.5 30.5t17.5 24.5q13 8 29.5 3.5t23.5 -17.5q35 -62 100 -89t132 -8q67 17 110 72.5t43 126.5v295q-82 -88 -206 -88 q-117 0 -201 83.5t-84 201.5zM203 795q0 -86 60 -146.5t145 -60.5q86 0 146 60.5t60 146.5v204q0 86 -60 146.5t-146 60.5q-85 0 -145 -60.5t-60 -146.5v-204z" />
<glyph unicode=":" horiz-adv-x="393" d="M137 78q0 25 17.5 42t42.5 17q26 0 43.5 -17t17.5 -42t-17.5 -42.5t-43.5 -17.5q-25 0 -42.5 17.5t-17.5 42.5zM137 856q0 25 17.5 42t42.5 17q26 0 43.5 -17t17.5 -42t-17.5 -42t-43.5 -17q-25 0 -42.5 17t-17.5 42z" />
<glyph unicode=";" horiz-adv-x="393" d="M127 98q0 15 11 26t26 11h65q15 0 26 -11t11 -26v-98q0 -44 -24 -80t-64 -53q-21 -9 -36.5 4.5t-14 35t22.5 30.5q43 16 43 63v61h-29q-15 0 -26 11t-11 26zM137 856q0 25 17.5 42t42.5 17t42 -17t17 -42t-17 -42t-42 -17t-42.5 17t-17.5 42z" />
<glyph unicode="&#x3c;" d="M125 590q0 19 12 31l492 409q13 9 29.5 7.5t25.5 -13.5q10 -10 10 -25q0 -19 -14 -30q-394 -328 -455 -379l455 -379q14 -11 14 -31q0 -14 -10 -24q-9 -12 -25 -14t-30 8l-492 409q-12 12 -12 31z" />
<glyph unicode="=" d="M141 426q0 17 11.5 28t27.5 11h492q17 0 28 -11t11 -28t-11 -28t-28 -11h-492q-16 0 -27.5 11t-11.5 28zM141 754q0 17 11.5 28t27.5 11h492q17 0 28 -11t11 -28t-11 -28t-28 -11h-492q-16 0 -27.5 11t-11.5 28z" />
<glyph unicode="&#x3e;" d="M158 180q0 20 14 31q394 328 455 379l-455 379q-14 11 -14 30q0 24 22 34.5t41 -3.5l492 -409q14 -11 14 -31t-14 -31l-492 -409q-18 -16 -40.5 -4.5t-22.5 34.5z" />
<glyph unicode="?" horiz-adv-x="731" d="M90 1143q31 53 81.5 89t109.5 46q30 6 60.5 5.5t59.5 -6.5t56.5 -19t52.5 -31q65 -50 93 -126.5t11.5 -158t-75.5 -143.5l-103 -105q-59 -59 -59 -145v-164q0 -17 -12 -28t-29 -11q-16 0 -27.5 11t-11.5 28v164q0 119 82 201l104 104q66 70 58.5 162t-80.5 147 q-70 55 -164 39q-89 -18 -139 -100q-7 -13 -24 -18t-30 3q-14 9 -18.5 25t4.5 31zM276 78q0 25 17.5 42t42.5 17t43 -17t18 -42t-18 -42.5t-43 -17.5t-42.5 17.5t-17.5 42.5z" />
<glyph unicode="@" horiz-adv-x="1564" d="M152 283v368q0 126 48 241t138 204q59 60 130.5 102t150.5 63t163 21q85 0 165 -21t151.5 -63t130.5 -102q89 -89 136.5 -204t47.5 -241v-381q0 -66 -32.5 -121.5t-88 -87.5t-121.5 -32h-409q-100 0 -171 70t-71 171q0 100 71 171t171 71h168v164q0 49 -28.5 90t-76.5 61 q-46 19 -95.5 9t-86.5 -45q-10 -10 -21.5 -11t-20.5 5.5t-15 16t-4.5 21.5t10.5 21q53 51 123.5 65t138.5 -14t109 -87.5t41 -131.5v-574h167q71 0 119.5 49t48.5 119v381q0 111 -41.5 213t-119.5 180q-80 79 -182 121.5t-214 42.5q-110 0 -212.5 -43t-180.5 -121 t-121 -180.5t-43 -212.5v-368q0 -112 42.5 -214t121.5 -182q78 -78 180 -119.5t213 -41.5h226q15 0 25.5 -11.5t10.5 -25.5q0 -15 -10.5 -26t-25.5 -11h-226q-126 0 -240.5 47.5t-203.5 136.5q-91 89 -138.5 204t-47.5 243zM594 270q0 -70 49.5 -119t118.5 -49h168v336h-168 q-69 0 -118.5 -49.5t-49.5 -118.5z" />
<glyph unicode="A" horiz-adv-x="884" d="M76 68l327 1187q11 29 39 29q13 0 23.5 -8.5t13.5 -20.5l328 -1187q4 -15 -4 -30t-23 -20q-15 -3 -30 5.5t-19 23.5q-28 108 -69 258h-439l-71 -258q-3 -15 -18 -23.5t-30 -5.5q-15 4 -23 19.5t-5 30.5zM246 383h393q-40 143 -111.5 403.5t-85.5 311.5 q-14 -50 -85 -310.5t-111 -404.5z" />
<glyph unicode="B" horiz-adv-x="876" d="M166 66v1171q0 17 11 28t28 11h246q118 0 201 -83t83 -202v-73q0 -77 -38.5 -143t-102.5 -103q64 -37 102.5 -103t38.5 -143v-115q0 -119 -82.5 -201.5t-201.5 -82.5h-246q-17 0 -28 11t-11 28zM244 104h207q85 0 145.5 60.5t60.5 146.5v115q0 86 -60.5 146.5 t-145.5 60.5h-207v-529zM244 711h207q85 0 145.5 60.5t60.5 146.5v73q0 86 -60.5 146.5t-145.5 60.5h-207v-487z" />
<glyph unicode="C" horiz-adv-x="788" d="M141 303v696q0 97 58.5 173.5t152.5 101.5q94 26 183.5 -11t136.5 -120q13 -21 0 -40.5t-33.5 -20t-34.5 19.5q-35 61 -99 88t-132 8q-67 -17 -110.5 -73.5t-43.5 -125.5v-696q0 -70 43 -126t111 -73q67 -19 131.5 8t99.5 89q14 19 34.5 18.5t33 -19.5t0.5 -40 q-47 -83 -136.5 -120.5t-183.5 -12.5q-94 26 -152.5 102.5t-58.5 173.5z" />
<glyph unicode="D" horiz-adv-x="876" d="M166 66v1171q0 17 11 28t28 11h246q118 0 201 -83t83 -202v-680q0 -119 -82.5 -201.5t-201.5 -82.5h-246q-17 0 -28 11t-11 28zM244 104h207q86 0 146 60.5t60 146.5v680q0 86 -60 146.5t-146 60.5h-207v-1094z" />
<glyph unicode="E" horiz-adv-x="753" d="M166 66v1171q0 17 11 28t28 11h409q17 0 28 -11t11 -28t-11 -28t-28 -11h-370v-487h329q17 0 28 -11t11 -28t-11 -28t-28 -11h-329v-529h370q17 0 28 -10.5t11 -27.5t-11 -28t-28 -11h-409q-17 0 -28 11t-11 28z" />
<glyph unicode="F" horiz-adv-x="737" d="M166 66v1171q0 17 11.5 28t27.5 11h409q17 0 28 -11t11 -28t-11 -28t-28 -11h-370v-487h329q17 0 28 -11t11 -28t-11 -28t-28 -11h-329v-567q0 -17 -11 -28t-28 -11q-16 0 -27.5 11t-11.5 28z" />
<glyph unicode="G" horiz-adv-x="843" d="M141 303v696q0 96 59 173t152 102q93 26 182.5 -10.5t139.5 -120.5q7 -15 3 -31t-18 -25q-13 -8 -29.5 -3t-23.5 18q-35 61 -100 88t-133 8q-67 -17 -110.5 -73.5t-43.5 -125.5v-696q0 -86 61 -146.5t146 -60.5q86 0 146.5 60.5t60.5 146.5v289h-166q-16 0 -27.5 11 t-11.5 28t11.5 28t27.5 11h205q17 0 28 -11t11 -28v-328q0 -119 -83.5 -202t-201.5 -83q-117 0 -201 83.5t-84 201.5z" />
<glyph unicode="H" horiz-adv-x="901" d="M166 57v1188q0 17 11.5 28t27.5 11q17 0 29 -11t12 -28v-534h411v534q0 17 11.5 28t27.5 11q17 0 29 -11t12 -28v-1188q0 -17 -12 -28t-29 -11q-16 0 -27.5 11t-11.5 28v576h-411v-576q0 -17 -12 -28t-29 -11q-16 0 -27.5 11t-11.5 28z" />
<glyph unicode="I" horiz-adv-x="409" d="M166 57v1188q0 17 11.5 28t27.5 11q17 0 29 -11t12 -28v-1188q0 -17 -12 -28t-29 -11q-16 0 -27.5 11t-11.5 28z" />
<glyph unicode="J" horiz-adv-x="681" d="M96 55q-18 15 -18 35.5t17.5 33.5t39.5 1q47 -28 103.5 -28t103.5 28t74.5 75.5t27.5 102.5v942q0 17 12 28t29 11q16 0 27.5 -11t11.5 -28v-942q0 -76 -38.5 -143t-104.5 -105q-66 -37 -142.5 -37t-142.5 37z" />
<glyph unicode="K" horiz-adv-x="862" d="M166 57v1188q0 17 11.5 28t27.5 11q17 0 29 -11t12 -28v-624l461 647q9 13 25.5 16t29.5 -6q12 -11 14.5 -27t-6.5 -28l-328 -461l332 -688q10 -22 -4 -39t-35.5 -16t-32.5 22l-311 647l-145 -203v-428q0 -17 -12 -28t-29 -11q-16 0 -27.5 11t-11.5 28z" />
<glyph unicode="L" horiz-adv-x="712" d="M164 66v1179q0 17 12 28t29 11q16 0 27.5 -11t11.5 -28v-1141h370q16 0 27.5 -10.5t11.5 -27.5t-11.5 -28t-27.5 -11h-409q-17 0 -29 11t-12 28z" />
<glyph unicode="M" horiz-adv-x="1064" d="M166 57v1188q0 31 30 38t44 -21q235 -500 292 -621l291 621q9 17 27.5 21t33.5 -7t15 -31v-1188q0 -17 -11.5 -28t-27.5 -11q-17 0 -28 11t-11 28v1012l-254 -537q-9 -22 -35 -22q-23 0 -36 22q-162 349 -252 537v-1012q0 -17 -11.5 -28t-27.5 -11q-17 0 -28 11t-11 28z " />
<glyph unicode="N" horiz-adv-x="983" d="M166 57v1188q0 31 30 38t44 -21q386 -800 499 -1033v1016q0 17 11 28t28 11t28 -11t11 -28v-1188q0 -20 -14.5 -31t-32.5 -7t-27 22q-386 799 -499 1032v-1016q0 -17 -11 -28t-28 -11t-28 11t-11 28z" />
<glyph unicode="O" d="M141 303v696q0 119 83.5 202t201.5 83t201.5 -83t83.5 -202v-696q0 -119 -83.5 -202t-201.5 -83t-201.5 83t-83.5 202zM219 303q0 -86 60.5 -146.5t146.5 -60.5t146.5 60.5t60.5 146.5v696q0 86 -60.5 146.5t-146.5 60.5t-146.5 -60.5t-60.5 -146.5v-696z" />
<glyph unicode="P" horiz-adv-x="819" d="M166 57v1180q0 17 11 28t28 11h246q118 0 201 -83t83 -202v-114q0 -119 -83 -202t-201 -83h-207v-535q0 -17 -11 -28t-28 -11t-28 11t-11 28zM244 670h207q86 0 146 60.5t60 146.5v114q0 86 -60 146.5t-146 60.5h-207v-528z" />
<glyph unicode="Q" d="M141 303v696q0 119 83.5 202t201.5 83t201.5 -83t83.5 -202v-696q0 -137 -109 -225l105 -180q7 -14 3 -30.5t-18 -25.5q-13 -8 -29.5 -3t-23.5 20l-107 180q-49 -21 -106 -21q-118 0 -201.5 83t-83.5 202zM219 303q0 -86 61 -146.5t146 -60.5q86 0 146.5 60.5t60.5 146.5 v696q0 86 -60.5 146.5t-146.5 60.5q-85 0 -146 -60.5t-61 -146.5v-696z" />
<glyph unicode="R" d="M166 57v1180q0 17 11.5 28t27.5 11h246q78 0 143 -38t103 -103.5t38 -143.5v-114q0 -64 -25.5 -120t-71 -96t-103.5 -57l198 -532q9 -23 -5.5 -39.5t-37 -14.5t-31.5 25l-204 549h-211v-535q0 -17 -11 -28t-28 -11q-16 0 -27.5 11t-11.5 28zM244 670h207q86 0 146 60.5 t60 146.5v114q0 86 -60 146.5t-146 60.5h-207v-528z" />
<glyph unicode="S" horiz-adv-x="782" d="M121 166q-9 17 -3 30t18 21t28 5.5t26 -17.5q30 -51 82.5 -81t117.5 -28t118 45q76 58 84.5 154t-60.5 170l-325 336q-59 61 -74.5 143t13.5 158t92 125q54 40 117 51.5t119.5 -3t105 -49t77.5 -83.5q7 -15 3 -31t-17 -25q-13 -8 -29.5 -3t-23.5 18q-50 82 -139 100 q-94 16 -164 -39q-46 -34 -67.5 -89t-11 -115t53.5 -103l328 -338q62 -62 77 -147.5t-15.5 -164.5t-96.5 -128q-108 -81 -236 -53q-131 25 -198 141z" />
<glyph unicode="T" horiz-adv-x="778" d="M84 1237q0 17 11.5 28t27.5 11h532q17 0 29 -11t12 -28t-12 -28t-29 -11h-225v-1141q0 -17 -12 -28t-29 -11q-16 0 -27.5 11t-11.5 28v1141h-227q-16 0 -27.5 11t-11.5 28z" />
<glyph unicode="U" horiz-adv-x="868" d="M147 303v942q0 17 12 28t29 11q16 0 27.5 -11t11.5 -28v-942q0 -86 60.5 -146.5t146.5 -60.5q85 0 145 60.5t60 146.5v942q0 17 12 28t29 11q16 0 27.5 -11t11.5 -28v-942q0 -118 -84 -201.5t-201 -83.5q-119 0 -203 83.5t-84 201.5z" />
<glyph unicode="V" horiz-adv-x="917" d="M94 1235q-5 15 3.5 29.5t25.5 17.5q15 4 28.5 -4t18.5 -23q232 -835 291 -1050l289 1050q5 15 19.5 23t29.5 4q15 -3 23 -17.5t3 -29.5l-327 -1188q-3 -12 -14 -20.5t-23 -8.5q-13 0 -24.5 8.5t-14.5 20.5z" />
<glyph unicode="W" horiz-adv-x="1429" d="M102 1235q-3 17 5.5 30.5t23.5 18.5q18 3 31 -5.5t16 -25.5q193 -790 250 -1028l248 1028q3 13 14 22t25 9q30 0 37 -31q192 -790 249 -1028l248 1028q4 17 18 25.5t29 5.5q17 -5 25 -18.5t4 -30.5l-287 -1188q-3 -12 -13.5 -20.5t-23.5 -8.5t-24 8.5t-14 20.5 q-191 792 -248 1030l-250 -1030q-3 -12 -13.5 -20.5t-23.5 -8.5t-24.5 8.5t-14.5 20.5z" />
<glyph unicode="X" horiz-adv-x="864" d="M90 76l297 596l-276 555q-9 18 -2 31t19 20.5t28 4t24 -18.5l252 -504l252 504q12 20 32 20.5t34 -18t4 -39.5l-279 -555l299 -596q11 -21 -3.5 -39.5t-34 -18t-31.5 20.5l-273 545l-272 -545q-8 -15 -24 -18.5t-28.5 3.5t-19.5 20.5t2 31.5z" />
<glyph unicode="Y" horiz-adv-x="823" d="M90 1227q-9 18 -2 31.5t19.5 20.5t28.5 3.5t24 -18.5q199 -395 252 -504l252 504q8 15 24 18.5t28 -4t19 -20.5t-2 -31l-282 -565v-605q0 -17 -11 -28t-28 -11t-28 11t-11 28v605z" />
<glyph unicode="Z" horiz-adv-x="786" d="M109 66q0 10 2 14q428 1018 469 1118h-433q-17 0 -27.5 11t-10.5 28t10.5 28t27.5 11h492q16 0 27.5 -11t11.5 -28q0 -10 -2 -14q-428 -1019 -469 -1119h432q17 0 28 -10.5t11 -27.5t-11 -28t-28 -11h-492q-16 0 -27 11t-11 28z" />
<glyph unicode="[" horiz-adv-x="524" d="M166 -98v1499q0 17 11 28t28 11h205q17 0 28 -11t11 -28t-11 -28t-28 -11h-166v-1421h166q17 0 28 -11t11 -28t-11 -28t-28 -11h-205q-17 0 -28 11t-11 28z" />
<glyph unicode="\" d="M143 1313q-7 22 8.5 38.5t37 14t28.5 -24.5l492 -1351q9 -22 -6 -38.5t-37 -14.5t-31 24z" />
<glyph unicode="]" horiz-adv-x="524" d="M76 -98q0 17 11 28t28 11h166v1421h-166q-17 0 -28 11t-11 28t11 28t28 11h204q16 0 27.5 -11t11.5 -28v-1499q0 -17 -11.5 -28t-27.5 -11h-204q-17 0 -28 11t-11 28z" />
<glyph unicode="^" horiz-adv-x="1024" d="M160 903l323 369q9 12 29 12t29 -12l323 -369q10 -12 9 -29t-13 -26q-12 -11 -28.5 -10.5t-26.5 12.5q-244 281 -293 336l-293 -336q-10 -12 -26.5 -12.5t-28.5 10.5q-12 9 -13 26t9 29z" />
<glyph unicode="_" horiz-adv-x="1024" d="M-41 -229q0 17 12 28t29 11h1024q16 0 27.5 -11t11.5 -28t-11.5 -28t-27.5 -11h-1024q-17 0 -29 11t-12 28z" />
<glyph unicode="`" horiz-adv-x="1024" d="M385 1260q-17 14 -10.5 34.5t24.5 26t35 -7.5l205 -185q12 -9 12.5 -25t-8.5 -26q-11 -11 -26 -11.5t-27 9.5z" />
<glyph unicode="a" horiz-adv-x="720" d="M86 270q0 100 71 171t171 71h168v164q0 49 -28.5 89.5t-74.5 61.5q-46 19 -94.5 9.5t-83.5 -43.5q-11 -12 -25.5 -12t-25.5 12q-10 11 -10 26t10 25q51 51 121.5 65t136.5 -14q67 -28 107 -87.5t40 -131.5v-610q0 -15 -11 -26t-26 -11h-204q-100 0 -171 70.5t-71 170.5z M160 270q0 -69 49 -118.5t119 -49.5h168v336h-168q-70 0 -119 -49.5t-49 -118.5z" />
<glyph unicode="b" horiz-adv-x="794" d="M168 66v1220q0 15 11 26t26 11t26 -11t11 -26v-381h168q100 0 170.5 -70.5t70.5 -170.5v-394q0 -100 -70.5 -170.5t-170.5 -70.5h-205q-15 0 -26 11t-11 26zM242 102h168q69 0 118.5 49.5t49.5 118.5v394q0 69 -49.5 118t-118.5 49h-168v-729z" />
<glyph unicode="c" horiz-adv-x="671" d="M143 262v410q0 74 40.5 134.5t109.5 88.5q67 28 138.5 13.5t123.5 -66.5q15 -15 8.5 -35t-24.5 -25t-35 9q-37 35 -87.5 45t-97.5 -9q-46 -20 -74 -62t-28 -93v-410q0 -51 28 -93.5t74 -62.5q47 -20 97.5 -10t87.5 47q15 15 35 8.5t25 -24.5t-9 -35q-52 -52 -123.5 -66.5 t-138.5 13.5q-69 28 -109.5 88.5t-40.5 134.5z" />
<glyph unicode="d" horiz-adv-x="794" d="M143 270v394q0 100 71 170.5t171 70.5h168v381q0 15 11 26t26 11t26 -11t11 -26v-1220q0 -15 -11 -26t-26 -11h-205q-100 0 -171 70.5t-71 170.5zM217 270q0 -69 49.5 -118.5t118.5 -49.5h168v729h-168q-69 0 -118.5 -49t-49.5 -118v-394z" />
<glyph unicode="e" horiz-adv-x="753" d="M143 262v410q0 100 71 170.5t171 70.5t171 -70.5t71 -170.5v-205q0 -15 -11 -26t-26 -11h-373v-168q0 -51 29 -93.5t76 -62.5q46 -20 95.5 -10t86.5 47q15 15 35 8.5t25 -24.5t-9 -35q-51 -52 -123 -66.5t-139 13.5q-68 28 -109 89t-41 134zM217 504h336v168 q0 69 -49.5 118.5t-118.5 49.5t-118.5 -49.5t-49.5 -118.5v-168z" />
<glyph unicode="f" horiz-adv-x="606" d="M78 868q0 15 11 26t26 11h127v176q0 100 70.5 171t170.5 71q15 0 26 -11t11 -26t-11 -26t-26 -11q-69 0 -118.5 -49.5t-49.5 -118.5v-176h168q15 0 26 -11t11 -26t-11 -26t-26 -11h-168v-774q0 -15 -10.5 -26t-25.5 -11t-26 11t-11 26v774h-127q-15 0 -26 11t-11 26z" />
<glyph unicode="g" horiz-adv-x="786" d="M143 270v394q0 100 71 170.5t171 70.5h205q15 0 26 -11t11 -26v-1015q0 -74 -40.5 -135t-109.5 -89q-67 -28 -138.5 -13t-123.5 67q-8 8 -10 17.5t1 17.5t10 15t15 10t17.5 1t17.5 -10q37 -37 87.5 -47t97.5 10q46 20 74 62.5t28 93.5v176h-168q-100 0 -171 70.5 t-71 170.5zM217 270q0 -69 49.5 -118.5t118.5 -49.5h168v729h-168q-69 0 -118.5 -49t-49.5 -118v-394z" />
<glyph unicode="h" horiz-adv-x="802" d="M168 57v1229q0 15 11 26t26 11t26 -11t11 -26v-381h168q100 0 170.5 -70.5t70.5 -170.5v-607q0 -15 -11 -26t-26 -11t-25.5 11t-10.5 26v607q0 69 -49.5 118t-118.5 49h-168v-774q0 -15 -11 -26t-26 -11t-26 11t-11 26z" />
<glyph unicode="i" horiz-adv-x="409" d="M147 1184q0 23 17.5 40t40.5 17q24 0 40.5 -16.5t16.5 -40.5t-16.5 -41t-40.5 -17q-23 0 -40.5 17.5t-17.5 40.5zM168 57v820q0 15 11 25.5t26 10.5t26 -10.5t11 -25.5v-820q0 -15 -11 -26t-26 -11t-26 11t-11 26z" />
<glyph unicode="j" horiz-adv-x="425" d="M-20 -352q0 15 10.5 26t25.5 11q70 0 119 49.5t49 118.5v1024q0 15 11 25.5t26 10.5t26 -10.5t11 -25.5v-1024q0 -100 -71 -171t-171 -71q-15 0 -25.5 11t-10.5 26zM164 1184q0 23 17 40t40 17q25 0 41.5 -16.5t16.5 -40.5t-17 -41t-41 -17q-23 0 -40 17.5t-17 40.5z" />
<glyph unicode="k" horiz-adv-x="778" d="M168 57v1229q0 15 11 26t26 11t26 -11t11 -26v-817l385 432q15 15 36 9t27 -23t-8 -35l-262 -293l266 -483q9 -16 3.5 -29t-16.5 -20.5t-26 -4.5t-24 17l-254 463l-127 -144v-301q0 -15 -11 -26t-26 -11t-26 11t-11 26z" />
<glyph unicode="l" horiz-adv-x="409" d="M162 199v1087q0 15 11.5 26t25.5 11q15 0 26 -11t11 -26v-1087q0 -72 63 -109q18 -13 18.5 -32t-17.5 -31.5t-38 -1.5q-46 28 -73 74.5t-27 99.5z" />
<glyph unicode="m" horiz-adv-x="1212" d="M168 57v811q0 15 11 26t26 11h614q100 0 171 -70.5t71 -170.5v-607q0 -15 -11.5 -26t-25.5 -11q-15 0 -26 11t-11 26v607q0 69 -49.5 118t-118.5 49h-168v-774q0 -15 -11.5 -26t-25.5 -11q-15 0 -25.5 11t-10.5 26v774h-336v-774q0 -15 -11.5 -26t-25.5 -11q-15 0 -26 11 t-11 26z" />
<glyph unicode="n" horiz-adv-x="802" d="M168 57v811q0 15 11 26t26 11h205q100 0 170.5 -70.5t70.5 -170.5v-607q0 -15 -11 -26t-26 -11t-25.5 11t-10.5 26v607q0 69 -49.5 118t-118.5 49h-168v-774q0 -15 -11 -26t-26 -11t-26 11t-11 26z" />
<glyph unicode="o" horiz-adv-x="770" d="M143 262v410q0 100 71 170.5t171 70.5t171 -70.5t71 -170.5v-410q0 -100 -71 -171t-171 -71t-171 71t-71 171zM217 262q0 -69 49.5 -118.5t118.5 -49.5t118.5 49.5t49.5 118.5v410q0 69 -49.5 118.5t-118.5 49.5t-118.5 -49.5t-49.5 -118.5v-410z" />
<glyph unicode="p" horiz-adv-x="794" d="M168 -352v1220q0 15 11 26t26 11h205q100 0 170.5 -70.5t70.5 -170.5v-394q0 -100 -70.5 -170.5t-170.5 -70.5h-168v-381q0 -15 -11 -26t-26 -11t-26 11t-11 26zM242 102h168q69 0 118.5 49.5t49.5 118.5v394q0 69 -49.5 118t-118.5 49h-168v-729z" />
<glyph unicode="q" horiz-adv-x="794" d="M143 270v394q0 100 71 170.5t171 70.5h205q15 0 26 -11t11 -26v-1220q0 -15 -11 -26t-26 -11t-26 11t-11 26v381h-168q-100 0 -171 70.5t-71 170.5zM217 270q0 -69 49.5 -118.5t118.5 -49.5h168v729h-168q-69 0 -118.5 -49t-49.5 -118v-394z" />
<glyph unicode="r" horiz-adv-x="612" d="M168 57v811q0 15 11 26t26 11h205q16 0 42 -5t52.5 -14.5t39.5 -26t1 -36.5q-7 -13 -22.5 -17.5t-28.5 3.5q-39 22 -84 22h-168v-774q0 -15 -11 -26t-26 -11t-26 11t-11 26z" />
<glyph unicode="s" horiz-adv-x="673" d="M125 135q-6 12 -4.5 24t10.5 19.5t19.5 11t21.5 -1t18 -16.5q17 -31 46.5 -51.5t64.5 -24.5q73 -12 128.5 40t49.5 124q-3 74 -65 117l-191 135q-56 38 -79.5 100.5t-8 129t65.5 114.5q53 48 121.5 55t127.5 -23t91 -85q11 -20 -1 -38t-31 -17.5t-32 18.5 q-34 58 -101.5 70.5t-125.5 -35.5q-50 -47 -47 -119q6 -70 63 -111l191 -133q56 -40 80.5 -105.5t9.5 -134.5t-68 -118q-79 -73 -190 -57q-111 20 -164 112z" />
<glyph unicode="t" horiz-adv-x="606" d="M78 868q0 15 11 26t26 11h127v381q0 15 11 26t26 11t25.5 -11t10.5 -26v-381h168q15 0 26 -11t11 -26t-11 -26t-26 -11h-168v-569q0 -69 49.5 -118.5t118.5 -49.5q15 0 26 -11t11 -26t-11 -26t-26 -11q-100 0 -170.5 71t-70.5 171v569h-127q-15 0 -26 11t-11 26z" />
<glyph unicode="u" horiz-adv-x="802" d="M152 270v607q0 15 10.5 25.5t25.5 10.5t26 -10.5t11 -25.5v-607q0 -69 49.5 -118.5t118.5 -49.5h168v775q0 15 11 25.5t26 10.5t26 -10.5t11 -25.5v-811q0 -15 -11 -26t-26 -11h-205q-100 0 -170.5 70.5t-70.5 170.5z" />
<glyph unicode="v" horiz-adv-x="757" d="M98 866q-7 20 9 34.5t36.5 11.5t24.5 -25q18 -59 46 -151.5t85 -283t80 -266.5l211 701q7 22 27 25t34.5 -11.5t7.5 -34.5l-245 -819q-7 -27 -35 -27t-35 27z" />
<glyph unicode="w" horiz-adv-x="1101" d="M104 868q-5 14 3.5 27t23.5 16q15 4 27.5 -3.5t17.5 -22.5q119 -481 168 -676l170 676q3 12 13 20t22 8q30 0 37 -28q119 -481 168 -676l170 676q3 15 16.5 23t28.5 3q13 -3 21 -16t5 -27l-204 -819q-3 -12 -13.5 -20.5t-23.5 -8.5q-12 0 -22 8.5t-13 20.5 q-121 481 -170 676l-168 -676q-3 -12 -13.5 -20.5t-23.5 -8.5q-12 0 -22 8.5t-13 20.5z" />
<glyph unicode="x" horiz-adv-x="737" d="M109 76l219 399l-211 383q-9 16 -3.5 29t16.5 20.5t26 4.5t24 -17l189 -344l190 344q12 18 31 18t31.5 -17.5t1.5 -37.5l-211 -383l219 -399q11 -20 -1.5 -37.5t-31.5 -17.5t-31 18l-198 358l-197 -358q-9 -14 -23.5 -17t-26 4.5t-17 20t3.5 29.5z" />
<glyph unicode="y" horiz-adv-x="755" d="M66 -352q0 10 5 18.5t13 13.5t18 5q55 0 101 32q43 34 61 86l76 254l-244 809q-7 20 8.5 34.5t36 11.5t27.5 -25l209 -701l211 701q6 21 27 24.5t36 -10.5t8 -35q-317 -1057 -325 -1083q-20 -71 -84 -121.5t-148 -50.5q-15 0 -25.5 11t-10.5 26z" />
<glyph unicode="z" horiz-adv-x="704" d="M111 66q0 12 2 16q336 655 383 749h-349q-15 0 -25.5 11t-10.5 26t10.5 26t25.5 11h410q14 0 25.5 -11t11.5 -26q0 -8 -4 -16q-336 -656 -383 -750h350q14 0 25.5 -10.5t11.5 -25.5t-11.5 -26t-25.5 -11h-410q-16 0 -26 10t-10 27z" />
<glyph unicode="{" horiz-adv-x="524" d="M59 672q0 17 11 28t28 11q51 0 88 36.5t37 88.5v409q0 85 59 144t144 59q17 0 28 -11t11 -28t-11 -28t-28 -11q-52 0 -88.5 -37t-36.5 -88v-409q0 -103 -84 -164q84 -61 84 -164v-451q0 -53 36.5 -89t88.5 -36q17 0 28 -10.5t11 -27.5t-11 -28t-28 -11q-85 0 -144 58.5 t-59 143.5v451q0 51 -37 88t-88 37q-17 0 -28 11t-11 28z" />
<glyph unicode="|" horiz-adv-x="425" d="M184 -352v2048q0 17 11 28t28 11t28 -11t11 -28v-2048q0 -17 -11 -28t-28 -11t-28 11t-11 28z" />
<glyph unicode="}" horiz-adv-x="524" d="M57 -106q0 17 11.5 27.5t29.5 10.5q51 0 87 36.5t36 88.5v451q0 103 84 164q-84 61 -84 164v409q0 51 -36 88t-87 37q-17 0 -29 11t-12 28t12 28t29 11q84 0 143.5 -59.5t59.5 -143.5v-409q0 -52 36.5 -88.5t88.5 -36.5q16 0 27.5 -11t11.5 -28t-11.5 -28t-27.5 -11 q-52 0 -88.5 -37t-36.5 -88v-451q0 -84 -59.5 -143t-143.5 -59q-17 0 -29 11t-12 28z" />
<glyph unicode="~" d="M119 516q33 48 85.5 75t115.5 23.5t116 -43.5l25 -18q52 -39 114 -27q61 9 97 64q14 18 34.5 15t29 -20t-0.5 -36q-52 -75 -142 -94t-177 39l-25 18q-51 39 -112 27q-61 -9 -97 -64q-9 -12 -24 -15.5t-29 5.5q-12 9 -15 24t5 27z" />
<glyph unicode="&#xa1;" horiz-adv-x="409" d="M145 856q0 25 17.5 42t42.5 17t43 -17t18 -42t-18 -42t-43 -17t-42.5 17t-17.5 42zM166 -270v819q0 17 11.5 28t27.5 11q17 0 29 -11t12 -28v-819q0 -17 -12 -28t-29 -11q-16 0 -27.5 11t-11.5 28z" />
<glyph unicode="&#xa2;" d="M209 262v410q0 90 56.5 155.5t148.5 85.5v127q0 17 12 28t29 11q16 0 27.5 -11t11.5 -28v-127q76 -12 133 -69q11 -10 11 -27t-11 -29q-12 -10 -28.5 -10t-27.5 10q-53 50 -116 50h-2q-71 0 -117.5 -50t-46.5 -116v-410q0 -66 46.5 -116t117.5 -50h2q67 0 116 49 q11 11 27.5 11t28.5 -11q11 -12 11 -28.5t-11 -26.5q-58 -58 -133 -70v-126q0 -17 -11.5 -28t-27.5 -11q-17 0 -29 11t-12 28v126q-91 20 -148 86.5t-57 155.5z" />
<glyph unicode="&#xa3;" d="M100 59q-2 14 6 26.5t21 16.5q62 22 99.5 75.5t37.5 119.5v336h-125q-16 0 -27.5 11t-11.5 28t11.5 28t27.5 11h125v329q0 83 50 148.5t130 87.5q79 22 157.5 -10t119.5 -103q11 -21 -1.5 -40t-32.5 -19.5t-36 18.5q-28 49 -79 70.5t-107 7.5q-54 -13 -88.5 -58.5 t-34.5 -101.5v-329h207q17 0 28 -11t11 -28t-11 -28t-28 -11h-207v-336q0 -113 -74 -193h445q17 0 28 -10.5t11 -27.5t-11 -28t-28 -11h-574q-14 0 -25 8.5t-14 23.5z" />
<glyph unicode="&#xa4;" horiz-adv-x="1433" d="M72 322v608q0 2 2 4v2q0 2 2 4v2l248 426q4 9 13.5 12t18.5 -2l744 -370l2 -2h2l248 -181q10 -7 10 -20v-606q0 -16 -14 -23q-66 -32 -371 -186l-125 -62l-2 -2h-2q-2 -2 -6 -2q-6 0 -6 2h-2q-3 0 -5 2l-743 371q-14 7 -14 23zM123 336l694 -346v553l-694 346v-553z M131 940l700 -350l224 385l-701 348zM287 453v252q0 12 11 20.5t26 1.5l299 -149q14 -7 14 -23v-252q0 -11 -7.5 -19t-17.5 -8q-2 0 -12 5l-299 149q-14 7 -14 23zM338 467l250 -125v199l-250 125v-199zM866 -10l74 37v591q0 16 14 23l248 125q11 8 23 -1.5t12 -21.5l2 -567 l74 37v580l-217 155l-230 -397v-561zM989 51l201 101l-2 550l-199 -98v-553z" />
<glyph unicode="&#xa5;" d="M104 1227q-9 18 -2 31t19.5 20.5t28.5 4t24 -18.5q199 -395 252 -504l252 504q8 15 24 18.5t28.5 -4t19.5 -20.5t-2 -31l-259 -516h191q17 0 28 -11t11 -28t-11 -28t-28 -11h-215v-250h215q17 0 28 -11t11 -28t-11 -28t-28 -11h-215v-248q0 -17 -11 -28t-28 -11t-28 11 t-11 28v248h-199q-17 0 -27.5 11t-10.5 28t10.5 28t27.5 11h199v250h-199q-17 0 -27.5 11t-10.5 28t10.5 28t27.5 11h174z" />
<glyph unicode="&#xa6;" horiz-adv-x="425" d="M174 -352v819q0 17 11 28t28 11t28 -11t11 -28v-819q0 -17 -11 -28t-28 -11t-28 11t-11 28zM174 877v819q0 17 11 28t28 11t28 -11t11 -28v-819q0 -17 -11 -28t-28 -11t-28 11t-11 28z" />
<glyph unicode="&#xa7;" d="M195 754q15 89 92 143q-69 66 -72 160q0 105 78 174q79 67 184 51q104 -19 156 -108q7 -15 3 -31t-18 -25q-13 -8 -29.5 -3t-23.5 18q-34 58 -102 71q-67 9 -119 -33q-52 -46 -49 -112q0 -68 53 -111l230 -184q49 -38 70.5 -95.5t10.5 -119.5q-19 -91 -92 -143 q69 -66 72 -160q0 -102 -78 -174q-80 -68 -184 -52q-104 19 -156 109q-7 15 -3 30.5t18 24.5q13 8 29.5 3.5t23.5 -17.5q35 -60 102 -72q67 -10 119 33q52 46 49 113q0 67 -53 110l-232 183q-47 40 -68 98t-11 119zM324 600l178 -141q44 22 66 66t12.5 94t-50.5 83l-178 142 q-44 -22 -66 -66.5t-12.5 -94.5t50.5 -83z" />
<glyph unicode="&#xa8;" horiz-adv-x="1024" d="M291 1184q0 23 17 40t40 17q24 0 41 -16.5t17 -40.5t-17 -41t-41 -17q-23 0 -40 17.5t-17 40.5zM618 1184q0 23 17.5 40t40.5 17q24 0 40.5 -16.5t16.5 -40.5t-16.5 -41t-40.5 -17q-23 0 -40.5 17.5t-17.5 40.5z" />
<glyph unicode="&#xa9;" horiz-adv-x="1470" d="M102 651q0 127 48 242.5t139 206.5q89 89 204.5 136.5t241.5 47.5q128 0 244 -47.5t205 -136.5q90 -91 138 -206.5t48 -242.5t-48 -242t-138 -206q-89 -89 -205.5 -137t-243.5 -48q-126 0 -241.5 48t-204.5 137q-187 187 -187 448zM182 651q0 -110 42 -211.5t120 -181.5 q78 -78 179.5 -120t211.5 -42q112 0 213.5 42t179.5 120q78 80 120 181.5t42 211.5t-42 211.5t-120 179.5q-161 164 -393 164q-111 0 -212 -42.5t-179 -121.5q-78 -78 -120 -179.5t-42 -211.5zM532 508v287q0 69 42 123t110 73q66 17 129.5 -9t97.5 -85q7 -13 5.5 -25.5 t-10.5 -20.5t-20 -12t-23 0t-19 17q-22 37 -60.5 53.5t-78.5 5.5q-41 -10 -67 -44t-26 -76v-287q0 -43 26 -77t67 -44q40 -11 78.5 5.5t60.5 53.5q7 13 19 17.5t23 0.5t20 -12t10.5 -20.5t-5.5 -25.5q-34 -59 -97.5 -85.5t-129.5 -9.5q-68 19 -110 73.5t-42 123.5z" />
<glyph unicode="&#xaa;" horiz-adv-x="624" d="M133 815q0 75 52.5 127.5t127.5 52.5h107v107q0 38 -23.5 65t-55 35.5t-66 -3.5t-54.5 -44q-11 -20 -33 -18.5t-31.5 18t1.5 37.5q29 54 85.5 77.5t116.5 6.5q59 -15 96.5 -64t37.5 -110v-430q0 -15 -11 -26t-26 -11h-144q-75 0 -127.5 52.5t-52.5 127.5zM207 815 q0 -44 31 -75t75 -31h107v213h-107q-29 0 -53.5 -15t-38.5 -39.5t-14 -52.5z" />
<glyph unicode="&#xab;" horiz-adv-x="858" d="M131 578q-13 19 0 38l131 238q8 14 23 18.5t30 -2.5q21 -14 21 -34q0 -19 -127 -238l42 -76q42 -75 67.5 -123t25.5 -55q0 -22 -20 -35q-15 -8 -31 -3t-23 20zM500 578q-13 19 0 38l131 238q8 14 23 18.5t30 -2.5q21 -14 21 -34q0 -19 -127 -238l42 -75.5t67.5 -123.5 t25.5 -55q0 -21 -21 -35q-15 -8 -30.5 -3t-22.5 20z" />
<glyph unicode="&#xac;" d="M141 590q0 17 11.5 28t27.5 11h492q17 0 28 -11t11 -28v-246q0 -17 -11 -28t-28 -11q-16 0 -27.5 11t-11.5 28v207h-453q-16 0 -27.5 11t-11.5 28z" />
<glyph unicode="&#xad;" d="M139 590q0 17 12 28t29 11h492q16 0 27.5 -11t11.5 -28t-11.5 -28t-27.5 -11h-492q-17 0 -29 11t-12 28z" />
<glyph unicode="&#xae;" horiz-adv-x="1470" d="M102 651q0 127 48 242.5t139 206.5q89 89 204.5 136.5t241.5 47.5q128 0 244 -47.5t205 -136.5q90 -91 138 -206.5t48 -242.5t-48 -242t-138 -206q-89 -89 -205.5 -137t-243.5 -48q-126 0 -241.5 48t-204.5 137q-187 187 -187 448zM182 651q0 -110 42 -211.5t120 -181.5 q78 -78 179.5 -120t211.5 -42q112 0 213.5 42t179.5 120q78 80 120 181.5t42 211.5t-42 211.5t-120 179.5q-161 164 -393 164q-111 0 -212 -42.5t-179 -121.5q-78 -78 -120 -179.5t-42 -211.5zM553 344v606q0 17 11.5 28t27.5 11h164q85 0 145 -59t60 -144 q0 -65 -38.5 -117.5t-99.5 -74.5l131 -232q8 -13 3.5 -28.5t-17.5 -24.5q-13 -8 -29.5 -3t-23.5 18l-150 260h-104v-240q0 -17 -12 -28t-29 -11q-16 0 -27.5 11t-11.5 28zM633 662h123q53 0 89 36t36 88q0 51 -36.5 88t-88.5 37h-123v-249z" />
<glyph unicode="&#xaf;" horiz-adv-x="1024" d="M-41 1532q0 17 12 28t29 11h1024q16 0 27.5 -11t11.5 -28t-11.5 -28t-27.5 -11h-1024q-17 0 -29 11t-12 28z" />
<glyph unicode="&#xb0;" horiz-adv-x="641" d="M100 1061q0 92 65 156.5t157 64.5q91 0 156 -64.5t65 -156.5t-65 -156.5t-156 -64.5q-92 0 -157 64.5t-65 156.5zM174 1061q0 -61 43 -104.5t105 -43.5q60 0 103.5 43.5t43.5 104.5t-43.5 104t-103.5 43q-62 0 -105 -43t-43 -104z" />
<glyph unicode="&#xb1;" d="M141 66q0 17 11.5 27.5t27.5 10.5h492q18 0 29.5 -10.5t11.5 -27.5t-12 -28t-29 -11h-492q-16 0 -27.5 11t-11.5 28zM141 590q0 17 11.5 28t27.5 11h207v207q0 17 11.5 27.5t27.5 10.5q18 0 29.5 -10.5t11.5 -27.5v-207h205q17 0 29 -11t12 -28t-12 -28t-29 -11h-205 v-207q0 -17 -12 -28t-29 -11q-16 0 -27.5 11t-11.5 28v207h-207q-16 0 -27.5 11t-11.5 28z" />
<glyph unicode="&#xb2;" horiz-adv-x="608" d="M137 621q-10 20 2 38l246 385q23 41 12 82q-9 40 -46 65.5t-83 12.5q-42 -9 -65 -49q-11 -20 -33 -18.5t-31.5 18t0.5 37.5q32 61 104.5 82.5t145.5 -19.5q63 -39 82 -112q16 -75 -25 -137q0 -1 -40 -64.5t-92 -146.5t-74 -119h198q15 0 26 -11t11 -26t-11 -26t-26 -11 h-268q-20 0 -33 19z" />
<glyph unicode="&#xb3;" horiz-adv-x="606" d="M137 684q-13 19 -1 37t32 18t33 -18q20 -32 54 -44t65.5 -3.5t55 35.5t23.5 65v41q0 43 -31.5 75t-74.5 32q-15 0 -26 10.5t-11 25.5t11 26t26 11q55 0 89.5 51t2.5 109q-13 24 -38.5 38.5t-53.5 14.5t-53.5 -14.5t-38.5 -38.5q-11 -20 -33 -18.5t-31.5 18t0.5 37.5 q23 41 66 65.5t90 24.5t90 -24.5t66 -65.5q26 -44 23.5 -89.5t-21.5 -83.5t-48 -61q70 -54 70 -143v-41q0 -62 -37.5 -110.5t-95.5 -63.5q-60 -17 -117 6.5t-86 77.5z" />
<glyph unicode="&#xb4;" horiz-adv-x="1024" d="M385 1128l205 185q12 10 27 9.5t26 -11.5q9 -10 8.5 -26t-10.5 -25l-205 -185q-17 -15 -37 -7t-24.5 26t10.5 34z" />
<glyph unicode="&#xb5;" horiz-adv-x="819" d="M168 -352v1229q0 15 11 25.5t26 10.5t26 -10.5t11 -25.5v-615q0 -69 49.5 -118.5t118.5 -49.5t118.5 49.5t49.5 118.5v615q0 15 10.5 25.5t25.5 10.5t26 -10.5t11 -25.5v-820q0 -15 -11 -26t-26 -11t-25.5 11t-10.5 26v31q-71 -68 -168 -68t-168 68v-440q0 -15 -11 -26 t-26 -11t-26 11t-11 26z" />
<glyph unicode="&#xb6;" horiz-adv-x="983" d="M92 991q0 119 83 202t202 83h512q17 0 28 -11t11 -28t-11 -28t-28 -11h-105v-1304q0 -17 -11 -28t-28 -11t-27.5 11t-10.5 28v1304h-209v-1304q0 -17 -11 -28t-28 -11t-28 11t-11 28v813h-43q-119 0 -202 83t-83 201zM170 991q0 -86 60.5 -146.5t146.5 -60.5h43v414h-43 q-86 0 -146.5 -60.5t-60.5 -146.5z" />
<glyph unicode="&#xb7;" horiz-adv-x="393" d="M137 795q0 25 17.5 42t42.5 17t42 -17t17 -42t-17 -42.5t-42 -17.5t-42.5 17.5t-17.5 42.5z" />
<glyph unicode="&#xb8;" horiz-adv-x="1024" d="M399 -229q-8 13 -3 29.5t20 23.5q61 38 61 108v125q0 17 11.5 28t27.5 11q17 0 28 -11t11 -28v-125q0 -55 -27 -102.5t-73 -73.5q-14 -9 -30.5 -4t-25.5 19z" />
<glyph unicode="&#xb9;" horiz-adv-x="479" d="M86 1036q-10 10 -10 27t10 27l182 182q18 18 41 7t23 -34v-614q0 -15 -11 -26t-26 -11t-26 11t-11 26v524l-119 -119q-11 -10 -27 -10t-26 10z" />
<glyph unicode="&#xba;" horiz-adv-x="624" d="M133 815v287q0 75 52.5 127.5t127.5 52.5t128 -52.5t53 -127.5v-287q0 -75 -53 -127.5t-128 -52.5t-127.5 52.5t-52.5 127.5zM207 815q0 -44 31 -75t75 -31q43 0 75 31t32 75v287q0 43 -32 74.5t-75 31.5q-44 0 -75 -31.5t-31 -74.5v-287z" />
<glyph unicode="&#xbb;" horiz-adv-x="858" d="M147 344q0 7 28 59t63 115t43 80q-7 13 -41 74t-59 108.5t-25 55.5q0 21 20 34q14 7 29.5 2.5t23.5 -18.5l131 -238q10 -19 0 -38l-139 -252q-7 -15 -23.5 -20t-29.5 3q-21 14 -21 35zM516 344q0 7 27.5 59.5t62.5 115t43 79.5q-7 13 -41 74t-59 108.5t-25 55.5 q0 20 21 34q14 7 29.5 2.5t23.5 -18.5l131 -238q9 -19 0 -38l-139 -252q-7 -15 -23.5 -20t-29.5 3q-21 14 -21 35z" />
<glyph unicode="&#xbc;" horiz-adv-x="1224" d="M86 1036q-10 10 -10 27t10 27l182 182q18 18 41 7t23 -34v-614q0 -15 -11 -26t-26 -11t-26 11t-11 26v524l-119 -119q-11 -10 -27 -10t-26 10zM260 74l574 1188q6 15 22 20.5t29 -2.5q15 -6 20.5 -22t-2.5 -29l-573 -1188q-6 -15 -22 -20.5t-29 2.5q-15 6 -21 22t2 29z M692 236l182 450q12 27 42 22t30 -36q0 -11 -2 -15q-129 -317 -162 -399h172v86q0 15 11 26t26 11t26 -11t11 -26v-86h70q15 0 26 -11t11 -26t-11 -26t-26 -11h-70v-127q0 -15 -11 -26t-26 -11t-26 11t-11 26v127h-227q-19 0 -33 17q-11 18 -2 35z" />
<glyph unicode="&#xbd;" horiz-adv-x="1220" d="M86 1036q-10 10 -10 27t10 27l182 182q18 18 41 7t23 -34v-614q0 -15 -11 -26t-26 -11t-26 11t-11 26v524l-119 -119q-11 -10 -27 -10t-26 10zM260 74l574 1188q6 15 22 20.5t29 -2.5q15 -6 20.5 -22t-2.5 -29l-573 -1188q-6 -15 -22 -20.5t-29 2.5q-15 6 -21 22t2 29z M793 47q-10 21 2 39l245 385q24 43 13 82q-9 39 -46.5 64.5t-82.5 13.5q-44 -9 -66 -49q-11 -20 -33 -19t-31.5 17.5t1.5 37.5q32 60 103.5 82.5t145.5 -18.5q63 -38 82 -113q16 -76 -24 -137q-156 -246 -207 -330h199q15 0 25.5 -10.5t10.5 -25.5t-10.5 -26t-25.5 -11h-269 q-20 0 -32 18z" />
<glyph unicode="&#xbe;" horiz-adv-x="1286" d="M98 684q-13 19 -1 37t32 18t33 -18q20 -32 54 -44t65.5 -3.5t55 35.5t23.5 65v41q0 43 -31.5 75t-74.5 32q-15 0 -26 10.5t-11 25.5t11 26t26 11q25 0 49 13.5t39 35.5t18 51t-14 60q-13 24 -38.5 38.5t-53.5 14.5q-18 0 -36 -6.5t-32.5 -18.5t-23.5 -28 q-11 -20 -33 -18.5t-31.5 18t0.5 37.5q23 41 66 65.5t90 24.5t90 -24.5t66 -65.5q18 -31 22 -66.5t-4.5 -67t-25 -57.5t-37.5 -43q69 -53 69 -143v-41q0 -62 -37.5 -110.5t-95.5 -63.5q-60 -17 -117 6.5t-86 77.5zM322 74l573 1188q6 15 22 20.5t29 -2.5q15 -6 21 -22 t-2 -29l-574 -1188q-6 -15 -22 -20.5t-29 2.5q-15 6 -20.5 22t2.5 29zM754 236l182 450q8 17 25.5 21.5t32 -5.5t14.5 -30q0 -11 -2 -15q-129 -317 -162 -399h172v86q0 15 11 26t26 11t26 -11t11 -26v-86h69q15 0 26 -11t11 -26t-11 -26t-26 -11h-69v-127q0 -15 -11 -26 t-26 -11t-26 11t-11 26v127h-228q-18 0 -32 17q-11 18 -2 35z" />
<glyph unicode="&#xbf;" horiz-adv-x="731" d="M109 -86q-6 131 81 221l105 105q59 59 59 145v164q0 17 11.5 28t27.5 11q17 0 29 -11t12 -28v-164q0 -117 -84 -201l-102 -104q-66 -68 -59 -161.5t79 -147.5q83 -59 171.5 -37t133.5 98q7 13 24 17.5t30 -3.5q14 -9 17.5 -24.5t-3.5 -30.5q-66 -112 -190 -137 q-129 -22 -230 53q-103 79 -112 207zM334 856q0 25 17 42t42 17t43.5 -17.5t18.5 -41.5t-18.5 -41.5t-43.5 -17.5t-42 17t-17 42z" />
<glyph unicode="&#xc0;" horiz-adv-x="884" d="M76 68l327 1187q11 29 39 29q13 0 23.5 -8.5t13.5 -20.5l328 -1187q4 -15 -4 -30t-23 -20q-15 -3 -30 5.5t-19 23.5q-28 108 -69 258h-439l-71 -258q-3 -15 -18 -23.5t-30 -5.5q-15 4 -23 19.5t-5 30.5zM246 383h393q-40 143 -111.5 403.5t-85.5 311.5 q-14 -50 -85 -310.5t-111 -404.5zM313 1667q-11 9 -12.5 21.5t4.5 22.5t15.5 17t22.5 6.5t24 -10.5l204 -184q11 -9 12.5 -21.5t-4.5 -22.5t-15 -17t-22 -6.5t-24 10.5z" />
<glyph unicode="&#xc1;" horiz-adv-x="884" d="M76 68l327 1187q11 29 39 29q13 0 23.5 -8.5t13.5 -20.5l328 -1187q4 -15 -4 -30t-23 -20q-15 -3 -30 5.5t-19 23.5q-28 108 -69 258h-439l-71 -258q-3 -15 -18 -23.5t-30 -5.5q-15 4 -23 19.5t-5 30.5zM246 383h393q-40 143 -111.5 403.5t-85.5 311.5 q-14 -50 -85 -310.5t-111 -404.5zM313 1540l205 184q11 10 24 10.5t22 -6.5t15 -17t4.5 -22.5t-12.5 -21.5l-204 -184q-18 -16 -39.5 -7.5t-26 27.5t11.5 37z" />
<glyph unicode="&#xc2;" horiz-adv-x="884" d="M76 68l327 1187q11 29 39 29q13 0 23.5 -8.5t13.5 -20.5l328 -1187q4 -15 -4 -30t-23 -20q-15 -3 -30 5.5t-19 23.5q-28 108 -69 258h-439l-71 -258q-3 -15 -18 -23.5t-30 -5.5q-15 4 -23 19.5t-5 30.5zM227 1487q-10 14 -8 30t14 25l185 144q24 17 49 0l184 -144 q18 -14 13.5 -36t-22.5 -30t-40 5q-123 96 -160 125l-159 -125q-12 -10 -29.5 -8t-26.5 14zM246 383h393q-40 143 -111.5 403.5t-85.5 311.5q-14 -50 -85 -310.5t-111 -404.5z" />
<glyph unicode="&#xc3;" horiz-adv-x="884" d="M76 68l327 1187q11 29 39 29q13 0 23.5 -8.5t13.5 -20.5l328 -1187q4 -15 -4 -30t-23 -20q-15 -3 -30 5.5t-19 23.5q-28 108 -69 258h-439l-71 -258q-3 -15 -18 -23.5t-30 -5.5q-15 4 -23 19.5t-5 30.5zM225 1591q37 55 104 68.5t130 -29.5q43 -32 80 -26t55 34 q14 20 36.5 17.5t31.5 -20t-3 -40.5q-37 -54 -104 -68t-127 29l-16 13q-33 20 -66.5 13t-54.5 -34q-14 -20 -36 -17t-31 21t1 39zM246 383h393q-40 143 -111.5 403.5t-85.5 311.5q-14 -50 -85 -310.5t-111 -404.5z" />
<glyph unicode="&#xc4;" horiz-adv-x="884" d="M76 68l327 1187q11 29 39 29q13 0 23.5 -8.5t13.5 -20.5l328 -1187q4 -15 -4 -30t-23 -20q-15 -3 -30 5.5t-19 23.5q-28 108 -69 258h-439l-71 -258q-3 -15 -18 -23.5t-30 -5.5q-15 4 -23 19.5t-5 30.5zM219 1593q0 25 17.5 42.5t42.5 17.5t42 -17.5t17 -42.5t-17 -42 t-42 -17t-42.5 17t-17.5 42zM246 383h393q-40 143 -111.5 403.5t-85.5 311.5q-14 -50 -85 -310.5t-111 -404.5zM547 1593q0 25 17 42.5t42 17.5t42.5 -17.5t17.5 -42.5t-17.5 -42t-42.5 -17t-42 17t-17 42z" />
<glyph unicode="&#xc5;" horiz-adv-x="884" d="M76 68l327 1187q11 29 39 29q13 0 23.5 -8.5t13.5 -20.5l328 -1187q4 -15 -4 -30t-23 -20q-15 -3 -30 5.5t-19 23.5q-28 108 -69 258h-439l-71 -258q-3 -15 -18 -23.5t-30 -5.5q-15 4 -23 19.5t-5 30.5zM246 383h393q-40 143 -111.5 403.5t-85.5 311.5 q-14 -50 -85 -310.5t-111 -404.5zM285 1614q0 66 46 112t111 46q66 0 113 -46t47 -112t-47 -112t-113 -46q-65 0 -111 46t-46 112zM356 1614q0 -37 25.5 -62.5t60.5 -25.5q37 0 62.5 25.5t25.5 62.5t-25.5 62.5t-62.5 25.5q-35 0 -60.5 -25.5t-25.5 -62.5z" />
<glyph unicode="&#xc6;" horiz-adv-x="1263" d="M63 74l529 1179q10 23 37 23h493q9 0 16.5 -3t13 -8t8.5 -12.5t3 -15.5q0 -17 -12 -28t-29 -11h-368v-487h327q9 0 16.5 -3t13 -8t8.5 -12.5t3 -15.5q0 -17 -12 -28t-29 -11h-327v-529h368q9 0 16.5 -2.5t13 -7.5t8.5 -12.5t3 -15.5q0 -17 -12 -28t-29 -11h-409 q-7 0 -14.5 3t-12.5 8t-8.5 12.5t-3.5 15.5v239h-420l-119 -264q-9 -23 -30.5 -24t-36 17t-5.5 40zM289 383h385v815h-21q-5 -11 -63 -141t-148 -331t-153 -343z" />
<glyph unicode="&#xc7;" horiz-adv-x="806" d="M139 303v696q0 96 59 173t152 102q94 26 184.5 -11t137.5 -120l20 -37q6 -13 4.5 -25t-10.5 -20t-20 -11.5t-22.5 1t-18.5 16.5l-21 35q-35 61 -100 88t-133 8q-67 -17 -109.5 -73t-42.5 -126v-696q0 -71 42.5 -126.5t109.5 -72.5q67 -19 132.5 8t100.5 89l21 35 q7 12 18.5 16.5t22.5 1t20 -11.5t10.5 -20t-4.5 -25l-20 -37q-33 -58 -88 -94.5t-119 -45.5v-92q0 -55 -28 -102.5t-75 -73.5q-26 -17 -46 7t-7 47q5 9 15 14q61 36 61 108v92q-3 1 -10 2.5t-13.5 2.5t-11.5 2q-93 26 -152 103t-59 173z" />
<glyph unicode="&#xc8;" horiz-adv-x="753" d="M164 66v1171q0 17 12 28t29 11h409q16 0 27.5 -11t11.5 -28t-11.5 -28t-27.5 -11h-370v-487h329q16 0 27.5 -11t11.5 -28t-11.5 -28t-27.5 -11h-329v-529h370q16 0 27.5 -10.5t11.5 -27.5t-11.5 -28t-27.5 -11h-409q-17 0 -29 11t-12 28zM276 1722q10 12 28 12.5 t28 -10.5l205 -184q11 -9 13 -21.5t-3.5 -22.5t-15 -17t-22.5 -6.5t-24 10.5l-204 184q-12 11 -13.5 27t8.5 28z" />
<glyph unicode="&#xc9;" horiz-adv-x="753" d="M164 66v1171q0 17 12 28t29 11h409q16 0 27.5 -11t11.5 -28t-11.5 -28t-27.5 -11h-370v-487h329q16 0 27.5 -11t11.5 -28t-11.5 -28t-27.5 -11h-329v-529h370q16 0 27.5 -10.5t11.5 -27.5t-11.5 -28t-27.5 -11h-409q-17 0 -29 11t-12 28zM276 1485q-10 12 -8.5 28 t13.5 27l204 184q12 11 29 10.5t27 -12.5t9.5 -28t-11.5 -27l-205 -184q-12 -11 -30 -10.5t-28 12.5z" />
<glyph unicode="&#xca;" horiz-adv-x="753" d="M166 66v1171q0 17 11 28t28 11h409q16 0 27.5 -11t11.5 -28t-11.5 -28t-27.5 -11h-370v-487h329q16 0 27.5 -11t11.5 -28t-11.5 -28t-27.5 -11h-329v-529h370q16 0 27.5 -10.5t11.5 -27.5t-11.5 -28t-27.5 -11h-409q-17 0 -28 11t-11 28zM201 1542l184 144q11 8 25 8 t24 -8l184 -144q12 -9 14 -25.5t-7 -29.5q-11 -12 -27.5 -14t-28.5 8q-122 96 -159 125l-160 -125q-27 -21 -50 2q-22 22 -10 46q4 7 11 13z" />
<glyph unicode="&#xcb;" horiz-adv-x="753" d="M166 66v1171q0 17 11 28t28 11h409q17 0 28 -11t11 -28t-11 -28t-28 -11h-370v-487h329q17 0 28 -11t11 -28t-11 -28t-28 -11h-329v-529h370q17 0 28 -10.5t11 -27.5t-11 -28t-28 -11h-409q-17 0 -28 11t-11 28zM186 1593q0 25 17.5 42.5t42.5 17.5t42 -17.5t17 -42.5 t-17 -42t-42 -17t-42.5 17t-17.5 42zM514 1593q0 25 17 42.5t42 17.5t42.5 -17.5t17.5 -42.5t-17.5 -42t-42.5 -17t-42 17t-17 42z" />
<glyph unicode="&#xcc;" horiz-adv-x="409" d="M76 1667q-11 9 -12.5 21.5t4.5 22.5t15 17t22 6.5t24 -10.5l205 -184q11 -9 12.5 -21.5t-4.5 -22.5t-15 -17t-22 -6.5t-24 10.5zM166 57v1188q0 17 11 28t28 11t28 -11t11 -28v-1188q0 -17 -11 -28t-28 -11t-28 11t-11 28z" />
<glyph unicode="&#xcd;" horiz-adv-x="409" d="M76 1540l205 184q11 10 24 10.5t22 -6.5t15 -17t4.5 -22.5t-12.5 -21.5l-205 -184q-11 -10 -24 -10.5t-22 6.5t-15 17t-4.5 22.5t12.5 21.5zM166 57v1188q0 17 11 28t28 11t28 -11t11 -28v-1188q0 -17 -11 -28t-28 -11t-28 11t-11 28z" />
<glyph unicode="&#xce;" horiz-adv-x="409" d="M-4 1542l184 144q11 8 25 8t24 -8l185 -144q11 -8 13.5 -20.5t-2.5 -23t-14 -18.5t-21.5 -8t-24.5 9q-123 96 -160 125l-160 -125q-27 -21 -50 2q-22 22 -10 46q4 7 11 13zM166 57v1188q0 17 11 28t28 11t28 -11t11 -28v-1188q0 -17 -11 -28t-28 -11t-28 11t-11 28z" />
<glyph unicode="&#xcf;" horiz-adv-x="409" d="M-18 1593q0 25 17 42.5t42 17.5t42 -17.5t17 -42.5t-17 -42t-42 -17t-42 17t-17 42zM166 57v1188q0 17 11 28t28 11t28 -11t11 -28v-1188q0 -17 -11 -28t-28 -11t-28 11t-11 28zM309 1593q0 25 17.5 42.5t42.5 17.5t42 -17.5t17 -42.5t-17 -42t-42 -17t-42.5 17t-17.5 42 z" />
<glyph unicode="&#xd0;" horiz-adv-x="903" d="M29 672q0 17 11.5 28t27.5 11h125v526q0 17 11.5 28t26.5 11h246q119 0 203 -83.5t84 -201.5v-680q0 -118 -84 -201t-203 -83h-246q-15 0 -26.5 11t-11.5 28v567h-125q-16 0 -27.5 11t-11.5 28zM272 104h205q86 0 146.5 60.5t60.5 146.5v680q0 86 -60.5 146.5 t-146.5 60.5h-205v-487h164q17 0 29 -11t12 -28t-12 -28t-29 -11h-164v-529z" />
<glyph unicode="&#xd1;" horiz-adv-x="983" d="M166 57v1188q0 30 31.5 38t42.5 -21q386 -800 499 -1033v1016q0 17 11.5 28t27.5 11q17 0 28 -11t11 -28v-1188q0 -20 -14.5 -31t-32.5 -7t-27 22q-384 799 -499 1032v-1016q0 -17 -11 -28t-28 -11q-16 0 -27.5 11t-11.5 28zM274 1591q37 55 104 68.5t130 -29.5 q43 -32 80 -26t55 34q14 20 36.5 17.5t31.5 -20.5t-2 -40q-37 -54 -104.5 -68t-127.5 29l-16 13q-32 20 -67.5 13t-53.5 -34q-9 -14 -25 -17.5t-28 5.5q-14 9 -18 25t5 30z" />
<glyph unicode="&#xd2;" d="M141 303v696q0 118 84 201.5t201 83.5q118 0 201.5 -83t83.5 -202v-696q0 -119 -83.5 -202t-201.5 -83q-117 0 -201 83.5t-84 201.5zM219 303q0 -86 61 -146.5t146 -60.5q86 0 146.5 60.5t60.5 146.5v696q0 86 -60.5 146.5t-146.5 60.5q-85 0 -146 -60.5t-61 -146.5v-696 zM295 1722q10 12 26.5 12.5t28.5 -10.5l205 -184q12 -11 13 -27t-9 -28q-12 -12 -28.5 -12.5t-28.5 10.5l-205 184q-11 11 -11.5 27t9.5 28z" />
<glyph unicode="&#xd3;" d="M141 303v696q0 118 84 201.5t201 83.5q119 0 203 -83.5t84 -201.5v-696q0 -118 -84 -201.5t-203 -83.5q-117 0 -201 83.5t-84 201.5zM221 303q0 -86 60 -146.5t145 -60.5q86 0 146.5 60.5t60.5 146.5v696q0 86 -60.5 146.5t-146.5 60.5q-85 0 -145 -60.5t-60 -146.5v-696 zM299 1540l205 184q10 11 27.5 10.5t27.5 -12.5t9 -28t-13 -27l-205 -184q-11 -10 -24 -10.5t-22 6.5t-14.5 17t-3.5 22.5t13 21.5z" />
<glyph unicode="&#xd4;" d="M141 303v696q0 118 84 201.5t201 83.5q119 0 203 -83.5t84 -201.5v-696q0 -118 -84 -201.5t-203 -83.5q-117 0 -201 83.5t-84 201.5zM211 1487q-9 13 -7 29.5t15 25.5l184 144q24 17 48 0l184 -144q13 -9 15 -25.5t-7 -29.5q-11 -12 -27 -14t-28 8q-125 96 -162 125 l-160 -125q-12 -10 -28 -8t-27 14zM221 303q0 -86 60 -146.5t145 -60.5q86 0 146.5 60.5t60.5 146.5v696q0 86 -60.5 146.5t-146.5 60.5q-85 0 -145 -60.5t-60 -146.5v-696z" />
<glyph unicode="&#xd5;" d="M139 303v696q0 118 84 201.5t203 83.5q117 0 201 -83.5t84 -201.5v-696q0 -118 -84 -201.5t-201 -83.5q-119 0 -203 83.5t-84 201.5zM209 1591q37 55 103.5 68.5t127.5 -29.5l17 -12q32 -20 66.5 -13t54.5 33q6 9 14 13.5t16.5 4.5t16.5 -3t13.5 -9.5t9 -14t2.5 -16.5 t-7 -18q-37 -54 -104 -67.5t-129 28.5l-17 13q-31 20 -66 13t-53 -34q-6 -9 -14 -13.5t-16.5 -4.5t-16.5 3t-13.5 9t-9 13.5t-2.5 17t7 18.5zM219 303q0 -86 60.5 -146.5t146.5 -60.5q85 0 145 60.5t60 146.5v696q0 86 -60 146.5t-145 60.5q-86 0 -146.5 -60.5t-60.5 -146.5 v-696z" />
<glyph unicode="&#xd6;" d="M139 303v696q0 118 84 201.5t203 83.5q117 0 201 -83.5t84 -201.5v-696q0 -118 -84 -201.5t-201 -83.5q-119 0 -203 83.5t-84 201.5zM201 1593q0 25 17.5 42.5t43.5 17.5q25 0 42.5 -17.5t17.5 -42.5t-17.5 -42t-42.5 -17q-26 0 -43.5 17t-17.5 42zM219 303 q0 -86 60.5 -146.5t146.5 -60.5q85 0 145 60.5t60 146.5v696q0 86 -60 146.5t-145 60.5q-86 0 -146.5 -60.5t-60.5 -146.5v-696zM528 1593q0 25 18 42.5t44 17.5q25 0 42 -17.5t17 -42.5t-17 -42t-42 -17q-26 0 -44 17t-18 42z" />
<glyph unicode="&#xd7;" d="M193 356q-11 12 -11 29t11 29l178 176l-178 176q-11 12 -11 28.5t11 28.5q12 11 28.5 11t28.5 -11l176 -178l176 178q12 11 28.5 11t28.5 -11q11 -12 11 -28.5t-11 -28.5l-178 -176l178 -176q11 -12 11 -29t-11 -29q-12 -10 -28.5 -10t-28.5 10l-176 179l-176 -179 q-12 -10 -28.5 -10t-28.5 10z" />
<glyph unicode="&#xd8;" horiz-adv-x="872" d="M33 -6l127 235q-8 31 -8 74v696q0 119 83 202t201 83q72 0 134 -33t100 -90l100 185q7 13 19 17.5t23 1t20.5 -11t11.5 -19.5t-4 -25l-129 -236q10 -38 10 -74v-696q0 -119 -83.5 -202t-201.5 -83q-71 0 -132.5 32.5t-100.5 88.5l-101 -182q-7 -13 -18.5 -18t-22.5 -1.5 t-20.5 11.5t-11.5 20t4 25zM229 354l396 727q-23 56 -75 90.5t-114 34.5q-86 0 -146.5 -60.5t-60.5 -146.5v-645zM246 221q25 -57 76 -91t114 -34q85 0 146 60.5t61 146.5v645z" />
<glyph unicode="&#xd9;" horiz-adv-x="868" d="M150 303v942q0 17 10.5 28t27.5 11q16 0 27.5 -11t11.5 -28v-942q0 -86 60.5 -146.5t146.5 -60.5q85 0 146 60.5t61 146.5v942q0 17 11 28t28 11q16 0 27.5 -11t11.5 -28v-942q0 -119 -83.5 -202t-201.5 -83t-201 83t-83 202zM305 1667q-18 15 -11.5 36.5t25.5 28 t39 -7.5l205 -184q18 -15 11.5 -36.5t-25.5 -28t-39 7.5z" />
<glyph unicode="&#xda;" horiz-adv-x="868" d="M150 303v942q0 17 10.5 28t27.5 11t28 -11t11 -28v-942q0 -86 60.5 -146.5t146.5 -60.5t146.5 60.5t60.5 146.5v942q0 17 11 28t28 11t28 -11t11 -28v-942q0 -119 -83.5 -202t-201.5 -83t-201 83t-83 202zM305 1540l205 184q11 10 24 10.5t22 -6.5t15 -17t4.5 -22.5 t-12.5 -21.5l-205 -184q-11 -10 -24 -10.5t-22 6.5t-15 17t-4.5 22.5t12.5 21.5z" />
<glyph unicode="&#xdb;" horiz-adv-x="868" d="M150 303v942q0 17 11.5 28t26.5 11q17 0 29 -11t12 -28v-942q0 -86 60 -146.5t145 -60.5q86 0 146.5 60.5t60.5 146.5v942q0 17 11.5 28t27.5 11q17 0 29 -11t12 -28v-942q0 -118 -84 -201.5t-203 -83.5q-117 0 -200.5 83.5t-83.5 201.5zM219 1487q-9 13 -7 29.5t15 25.5 l185 144q9 8 23 8t24 -8l184 -144q13 -9 15 -25.5t-7 -29.5q-11 -12 -27 -14t-28 8q-125 96 -162 125l-160 -125q-12 -10 -28 -8t-27 14z" />
<glyph unicode="&#xdc;" horiz-adv-x="868" d="M150 303v942q0 17 11.5 28t26.5 11q17 0 29 -11t12 -28v-942q0 -86 60 -146.5t145 -60.5q86 0 146.5 60.5t60.5 146.5v942q0 17 11.5 28t27.5 11q17 0 29 -11t12 -28v-942q0 -118 -84 -201.5t-203 -83.5q-117 0 -200.5 83.5t-83.5 201.5zM211 1593q0 25 17 42.5t42 17.5 t43.5 -17.5t18.5 -42.5q0 -24 -18.5 -41.5t-43.5 -17.5t-42 17t-17 42zM539 1593q0 25 17 42.5t42 17.5t43 -17.5t18 -42.5t-18 -42t-43 -17t-42 17t-17 42z" />
<glyph unicode="&#xdd;" horiz-adv-x="823" d="M90 1227q-14 28 13 48q26 19 47 2q6 -5 10 -13q199 -395 252 -504l252 504q8 15 24 18.5t28 -4t19 -20.5t-2 -31l-282 -565v-605q0 -17 -11 -28t-28 -11q-16 0 -27.5 11t-11.5 28v605zM283 1540l204 184q12 11 29 10.5t27 -12.5q12 -12 11 -28t-13 -27l-205 -184 q-11 -10 -24 -10.5t-22 6.5t-15 17t-4.5 22.5t12.5 21.5z" />
<glyph unicode="&#xde;" horiz-adv-x="819" d="M164 57v1180q0 17 12 28t29 11q16 0 27.5 -11t11.5 -28v-219h207q117 0 200.5 -83.5t83.5 -201.5v-123q0 -118 -83.5 -201t-200.5 -83h-207v-269q0 -17 -11.5 -28t-27.5 -11q-17 0 -29 11t-12 28zM244 403h207q85 0 144.5 60.5t59.5 146.5v123q0 86 -59.5 146.5 t-144.5 60.5h-207v-537z" />
<glyph unicode="&#xdf;" horiz-adv-x="876" d="M168 57v1024q0 67 34 124t93 89q60 32 126 28.5t122 -40.5q51 -34 79.5 -87.5t28.5 -113.5q0 -116 -92 -190q78 -33 126 -103.5t48 -156.5v-328q0 -117 -82.5 -200t-199.5 -83q-15 0 -26 11t-11 26t11 26t26 11q86 0 147 61.5t61 147.5v328q0 86 -61 147.5t-147 61.5 q-30 0 -37 28q-3 30 22 43l37 15q43 19 72 56.5t33 82.5q3 46 -17 88t-59 68t-84.5 28.5t-87.5 -20.5q-40 -22 -64 -62t-24 -86v-1024q0 -15 -11 -26t-26 -11t-26 11t-11 26z" />
<glyph unicode="&#xe0;" horiz-adv-x="720" d="M86 270q0 100 71 171t171 71h168v164q0 49 -28.5 89.5t-74.5 61.5q-46 19 -94.5 9.5t-83.5 -43.5q-11 -12 -25.5 -12t-25.5 12q-10 11 -10 26t10 25q51 51 121.5 65t136.5 -14q67 -28 107 -87.5t40 -131.5v-610q0 -15 -11 -26t-26 -11h-204q-100 0 -171 70.5t-71 170.5z M160 270q0 -69 49 -118.5t119 -49.5h168v336h-168q-70 0 -119 -49.5t-49 -118.5zM238 1311q11 11 26 11.5t27 -9.5l205 -185q17 -14 10.5 -34.5t-25 -26t-35.5 7.5l-204 185q-12 9 -12.5 25t8.5 26z" />
<glyph unicode="&#xe1;" horiz-adv-x="720" d="M86 270q0 100 71 171t171 71h168v164q0 49 -28.5 89.5t-74.5 61.5q-46 19 -94.5 9.5t-83.5 -43.5q-11 -12 -25.5 -12t-25.5 12q-10 11 -10 26t10 25q51 51 121.5 65t136.5 -14q67 -28 107 -87.5t40 -131.5v-610q0 -15 -11 -26t-26 -11h-204q-100 0 -171 70.5t-71 170.5z M160 270q0 -69 49.5 -118.5t118.5 -49.5h168v336h-168q-69 0 -118.5 -49.5t-49.5 -118.5zM238 1077q-9 10 -8.5 26t12.5 25l204 185q15 15 35 7.5t25 -25.5t-10 -35l-205 -185q-12 -10 -27 -9.5t-26 11.5z" />
<glyph unicode="&#xe2;" horiz-adv-x="720" d="M86 270q0 100 71 171t171 71h168v164q0 49 -28.5 89.5t-74.5 61.5q-46 19 -94.5 9.5t-83.5 -43.5q-11 -12 -25.5 -12t-25.5 12q-10 11 -10 26t10 25q51 51 121.5 65t136.5 -14q67 -28 107 -87.5t40 -131.5v-610q0 -15 -11 -26t-26 -11h-204q-100 0 -171 70.5t-71 170.5z M160 270q0 -69 49.5 -118.5t118.5 -49.5h168v336h-168q-69 0 -118.5 -49.5t-49.5 -118.5zM162 1130l184 144q9 7 21.5 7t23.5 -7l184 -144q18 -13 14 -33.5t-21.5 -28t-37.5 4.5q-126 98 -161 125l-162 -125q-18 -13 -37 -4t-21.5 27.5t13.5 33.5z" />
<glyph unicode="&#xe3;" horiz-adv-x="720" d="M86 270q0 100 71 171t171 71h168v164q0 49 -27.5 90t-73.5 61q-46 19 -95.5 9.5t-84.5 -43.5q-11 -12 -25.5 -12t-25.5 12q-10 11 -10 26t10 25q51 51 121.5 65t136.5 -14q67 -28 107 -87.5t40 -131.5v-610q0 -15 -11 -26t-26 -11h-204q-100 0 -171 70.5t-71 170.5z M154 1180q37 54 102 67.5t127 -28.5l16 -13q32 -22 69 -13.5t54 36.5q7 12 23 15t28 -5q12 -9 15 -24t-4 -27q-37 -55 -102 -68.5t-128 29.5q-45 33 -82 27q-38 -6 -57 -37q-9 -12 -24 -15t-27 4q-12 9 -15.5 24.5t5.5 27.5zM160 270q0 -69 49.5 -118.5t118.5 -49.5h168v336 h-168q-69 0 -118.5 -49.5t-49.5 -118.5z" />
<glyph unicode="&#xe4;" horiz-adv-x="720" d="M86 270q0 100 71 171t171 71h168v164q0 49 -27.5 90t-73.5 61q-46 19 -95.5 9.5t-84.5 -43.5q-11 -12 -25.5 -12t-25.5 12q-10 11 -10 26t10 25q51 51 121.5 65t136.5 -14q67 -28 107 -87.5t40 -131.5v-610q0 -15 -11 -26t-26 -11h-204q-100 0 -171 70.5t-71 170.5z M147 1184q0 24 16.5 40.5t41.5 16.5q23 0 40 -17t17 -40t-17 -40.5t-40 -17.5q-24 0 -41 17t-17 41zM160 270q0 -69 49.5 -118.5t118.5 -49.5h168v336h-168q-69 0 -118.5 -49.5t-49.5 -118.5zM475 1184q0 24 16.5 40.5t40.5 16.5q23 0 40.5 -17t17.5 -40t-17.5 -40.5 t-40.5 -17.5q-24 0 -40.5 17t-16.5 41z" />
<glyph unicode="&#xe5;" horiz-adv-x="720" d="M86 270q0 100 71 171t171 71h168v164q0 49 -27.5 90t-73.5 61q-46 19 -95.5 9.5t-84.5 -43.5q-11 -12 -25.5 -12t-25.5 12q-10 11 -10 26t10 25q51 51 121.5 65t136.5 -14q67 -28 107 -87.5t40 -131.5v-610q0 -15 -11 -26t-26 -11h-204q-100 0 -171 70.5t-71 170.5z M160 270q0 -69 49.5 -118.5t118.5 -49.5h168v336h-168q-69 0 -118.5 -49.5t-49.5 -118.5zM213 1204q0 64 45.5 110t110.5 46q64 0 109.5 -45.5t45.5 -110.5q0 -64 -45 -109.5t-110 -45.5t-110.5 45.5t-45.5 109.5zM279 1204q0 -37 26.5 -63.5t63.5 -26.5t63.5 26.5 t26.5 63.5t-26.5 63.5t-63.5 26.5t-63.5 -26.5t-26.5 -63.5z" />
<glyph unicode="&#xe6;" horiz-adv-x="1107" d="M106 354q28 68 89.5 109t134.5 41h168v168q0 51 -28.5 93t-76.5 62q-47 19 -97 9t-85 -45q-16 -16 -36 -9t-25.5 24.5t8.5 35.5q52 52 124.5 66.5t139.5 -13.5q71 -30 113 -94q33 52 86.5 82t117.5 30q100 0 171 -70.5t71 -170.5v-205q0 -15 -11 -26t-26 -11h-373v-168 q0 -51 28.5 -93.5t74.5 -62.5q47 -20 97 -10t87 47q9 9 21 10.5t21 -4.5t15 -15t4.5 -21t-10.5 -21q-52 -52 -123.5 -66.5t-138.5 13.5q-73 30 -112 94q-42 -64 -113 -94q-67 -28 -139.5 -13.5t-124.5 66.5q-53 51 -67 122.5t15 139.5zM174 326q-20 -46 -10 -96t47 -87 q35 -37 85 -47t97 10t76 62.5t29 93.5v168h-168q-52 0 -94 -28t-62 -76zM571 504h336v168q0 69 -49.5 118.5t-118.5 49.5t-118.5 -49.5t-49.5 -118.5v-168z" />
<glyph unicode="&#xe7;" horiz-adv-x="677" d="M143 262v410q0 73 41 134t109 89q67 28 139.5 13.5t124.5 -66.5q10 -10 11 -21.5t-5.5 -20.5t-16 -15t-21.5 -4.5t-21 10.5q-35 35 -85.5 45t-96.5 -9q-48 -20 -76.5 -62t-28.5 -93v-410q0 -66 47.5 -117t120.5 -51h2q68 0 117 49q16 16 36 9t25.5 -24.5t-8.5 -35.5 q-56 -56 -135 -69v-91q0 -54 -27 -101t-73 -73q-20 -11 -37.5 1t-17.5 31t18 32q29 17 46 46.5t17 63.5v91q-38 8 -55 16q-68 28 -109 89t-41 134z" />
<glyph unicode="&#xe8;" horiz-adv-x="753" d="M143 262v410q0 100 71 170.5t171 70.5t171 -70.5t71 -170.5v-205q0 -15 -11 -26t-26 -11h-373v-168q0 -51 29 -93.5t76 -62.5t97 -10t85 47q16 16 36 9t25.5 -24.5t-8.5 -35.5q-52 -52 -124.5 -66.5t-139.5 13.5q-68 28 -109 89t-41 134zM217 504h336v168 q0 69 -49.5 118.5t-118.5 49.5t-118.5 -49.5t-49.5 -118.5v-168zM256 1311q9 11 24.5 11.5t26.5 -9.5l205 -185q12 -9 12.5 -25t-8.5 -26q-11 -11 -26 -11.5t-27 9.5l-205 185q-11 9 -11.5 24.5t9.5 26.5z" />
<glyph unicode="&#xe9;" horiz-adv-x="753" d="M143 262v410q0 100 71 170.5t171 70.5t171 -70.5t71 -170.5v-205q0 -15 -11 -26t-26 -11h-373v-168q0 -51 29 -93.5t76 -62.5t97 -10t85 47q16 16 36 9t25.5 -24.5t-8.5 -35.5q-52 -52 -124.5 -66.5t-139.5 13.5q-68 28 -109 89t-41 134zM217 504h336v168 q0 69 -49.5 118.5t-118.5 49.5t-118.5 -49.5t-49.5 -118.5v-168zM258 1128l205 185q12 10 27 9.5t26 -11.5q9 -10 8.5 -26t-12.5 -25l-205 -185q-15 -15 -35 -7.5t-24.5 26t10.5 34.5z" />
<glyph unicode="&#xea;" horiz-adv-x="753" d="M143 262v410q0 100 71 170.5t171 70.5t171 -70.5t71 -170.5v-205q0 -15 -11 -26t-26 -11h-373v-168q0 -51 29 -93.5t76 -62.5t97 -10t85 47q16 16 36 9t25.5 -24.5t-8.5 -35.5q-52 -52 -124.5 -66.5t-139.5 13.5q-68 28 -109 89t-41 134zM178 1130l184 144q10 7 23.5 7 t22.5 -7l184 -144q12 -9 14.5 -24t-6.5 -27q-10 -12 -25.5 -13.5t-27.5 7.5q-127 98 -162 125l-162 -125q-10 -8 -21.5 -8t-20 7t-14 17t-3 21.5t13.5 19.5zM217 504h336v168q0 45 -22 84t-61 61.5t-85 22.5q-69 0 -118.5 -49.5t-49.5 -118.5v-168z" />
<glyph unicode="&#xeb;" horiz-adv-x="753" d="M143 262v410q0 100 71 170.5t171 70.5t171 -70.5t71 -170.5v-205q0 -15 -11 -26t-26 -11h-373v-168q0 -51 29 -93.5t76 -62.5t97 -10t85 47q16 16 36 9t25.5 -24.5t-8.5 -35.5q-52 -52 -124.5 -66.5t-139.5 13.5q-68 28 -109 89t-41 134zM164 1184q0 23 17 40t40 17 q25 0 41.5 -16.5t16.5 -40.5t-17 -41t-41 -17q-23 0 -40 17.5t-17 40.5zM217 504h336v168q0 69 -49 118.5t-119 49.5q-69 0 -118.5 -49.5t-49.5 -118.5v-168zM492 1184q0 23 17 40t40 17q24 0 40.5 -16.5t16.5 -40.5t-16.5 -41t-40.5 -17q-23 0 -40 17.5t-17 40.5z" />
<glyph unicode="&#xec;" horiz-adv-x="409" d="M37 1260q-17 14 -10.5 34t24.5 26t37 -7l205 -185q17 -14 10.5 -34t-24.5 -26t-37 7zM168 57v820q0 15 11.5 25.5t25.5 10.5q15 0 26 -10.5t11 -25.5v-820q0 -15 -11 -26t-26 -11q-14 0 -25.5 11t-11.5 26z" />
<glyph unicode="&#xed;" horiz-adv-x="409" d="M115 1077q-9 10 -8.5 26t12.5 25l205 185q15 15 35 7.5t24.5 -26t-10.5 -34.5l-205 -185q-12 -10 -27 -9.5t-26 11.5zM168 57v820q0 15 11 25.5t26 10.5t26 -10.5t11 -25.5v-820q0 -15 -11 -26t-26 -11t-26 11t-11 26z" />
<glyph unicode="&#xee;" horiz-adv-x="409" d="M-8 1079q-9 12 -6.5 27t14.5 24l184 144q9 8 22 8t23 -8l185 -144q11 -8 13.5 -19.5t-3 -21.5t-14 -17.5t-20 -7t-21.5 8.5q-127 98 -162 125l-162 -125q-12 -9 -27.5 -7.5t-25.5 13.5zM170 57v820q0 15 11 25.5t26 10.5t26 -10.5t11 -25.5v-820q0 -15 -11 -26t-26 -11 t-26 11t-11 26z" />
<glyph unicode="&#xef;" horiz-adv-x="409" d="M-16 1184q0 24 16.5 40.5t40.5 16.5q23 0 40 -17t17 -40t-17 -40.5t-40 -17.5q-24 0 -40.5 17t-16.5 41zM168 57v820q0 15 11 25.5t26 10.5t26 -10.5t11 -25.5v-820q0 -15 -11 -26t-26 -11t-26 11t-11 26zM311 1184q0 24 16.5 40.5t41.5 16.5q23 0 40 -17t17 -40 t-17 -40.5t-40 -17.5q-24 0 -41 17t-17 41z" />
<glyph unicode="&#xf0;" horiz-adv-x="770" d="M143 262v410q0 100 71 170.5t171 70.5q78 0 139 -45q-43 146 -135 254l-106 -71q-12 -9 -27.5 -5.5t-24.5 15.5q-7 12 -4 27t15 24l96 64q-25 27 -98 79q-12 7 -15.5 23.5t4.5 28.5q9 12 24.5 15t27.5 -5q68 -46 120 -98l86 57q12 8 28.5 5t23.5 -15q9 -12 5 -28t-16 -24 l-77 -51q78 -92 127 -224t49 -267v-410q0 -100 -71 -171t-171 -71t-171 71t-71 171zM217 262q0 -69 49.5 -118.5t118.5 -49.5t118.5 49.5t49.5 118.5v410q0 69 -49.5 118.5t-118.5 49.5t-118.5 -49.5t-49.5 -118.5v-410z" />
<glyph unicode="&#xf1;" horiz-adv-x="802" d="M168 57v811q0 15 11 26t26 11h205q100 0 170.5 -70.5t70.5 -170.5v-607q0 -15 -11 -26t-26 -11t-25.5 11t-10.5 26v607q0 69 -49.5 118t-118.5 49h-168v-774q0 -15 -11 -26t-26 -11t-26 11t-11 26zM195 1180q37 54 102 67.5t127 -28.5l16 -13q32 -22 68 -13.5t55 36.5 q7 12 22.5 15t28.5 -5q12 -9 15 -24t-4 -27q-37 -55 -103 -68.5t-127 29.5q-45 33 -82 27q-38 -6 -57 -37q-9 -12 -24 -15t-27 4q-12 9 -15.5 24.5t5.5 27.5z" />
<glyph unicode="&#xf2;" horiz-adv-x="770" d="M143 262v410q0 100 71 170.5t171 70.5t171 -70.5t71 -170.5v-410q0 -100 -71 -171t-171 -71t-171 71t-71 171zM217 262q0 -69 49.5 -118.5t118.5 -49.5t118.5 49.5t49.5 118.5v410q0 69 -49.5 118.5t-118.5 49.5t-118.5 -49.5t-49.5 -118.5v-410zM254 1311 q11 11 26.5 11.5t26.5 -9.5l205 -185q11 -9 11.5 -24.5t-9.5 -26.5q-9 -11 -24.5 -11.5t-26.5 9.5l-205 185q-12 9 -12.5 25t8.5 26z" />
<glyph unicode="&#xf3;" horiz-adv-x="770" d="M143 262v410q0 100 71 170.5t171 70.5t171 -70.5t71 -170.5v-410q0 -100 -71 -171t-171 -71t-171 71t-71 171zM217 262q0 -69 49.5 -118.5t118.5 -49.5t118.5 49.5t49.5 118.5v410q0 69 -49.5 118.5t-118.5 49.5t-118.5 -49.5t-49.5 -118.5v-410zM256 1077 q-10 11 -9.5 26.5t11.5 24.5l205 185q11 10 26.5 9.5t24.5 -11.5q10 -11 9.5 -26.5t-11.5 -24.5l-205 -185q-11 -10 -26.5 -9.5t-24.5 11.5z" />
<glyph unicode="&#xf4;" horiz-adv-x="770" d="M143 262v410q0 100 71 170.5t171 70.5t171 -70.5t71 -170.5v-410q0 -100 -71 -171t-171 -71t-171 71t-71 171zM178 1130l184 144q9 8 23 8t23 -8l184 -144q17 -13 13 -33.5t-21 -27.5t-37 4q-127 98 -162 125l-162 -125q-18 -13 -37 -4t-21.5 27.5t13.5 33.5zM217 262 q0 -69 49.5 -118.5t118.5 -49.5t118.5 49.5t49.5 118.5v410q0 69 -49.5 118.5t-118.5 49.5t-118.5 -49.5t-49.5 -118.5v-410z" />
<glyph unicode="&#xf5;" horiz-adv-x="770" d="M143 262v410q0 100 71 170.5t171 70.5t171 -70.5t71 -170.5v-410q0 -100 -71 -171t-171 -71t-171 71t-71 171zM170 1180q39 57 106 69q71 10 123 -30l17 -13q31 -22 68.5 -13.5t54.5 36.5q9 12 24 15t27 -5q12 -9 15.5 -24t-5.5 -27q-37 -55 -101.5 -68.5t-127.5 29.5 l-17 12q-33 23 -68 14.5t-55 -36.5q-7 -12 -23 -15.5t-28 4.5q-12 9 -15 24.5t5 27.5zM217 262q0 -69 49.5 -118.5t118.5 -49.5t118.5 49.5t49.5 118.5v410q0 69 -49.5 118.5t-118.5 49.5t-118.5 -49.5t-49.5 -118.5v-410z" />
<glyph unicode="&#xf6;" horiz-adv-x="770" d="M143 262v410q0 100 71 170.5t171 70.5t171 -70.5t71 -170.5v-410q0 -100 -71 -171t-171 -71t-171 71t-71 171zM164 1184q0 23 17 40t40 17t40.5 -17t17.5 -40t-17.5 -40.5t-40.5 -17.5t-40 17.5t-17 40.5zM217 262q0 -69 49.5 -118.5t118.5 -49.5t118.5 49.5t49.5 118.5 v410q0 69 -49.5 118.5t-118.5 49.5t-118.5 -49.5t-49.5 -118.5v-410zM492 1184q0 23 17 40t40 17t40 -17t17 -40t-17 -40.5t-40 -17.5t-40 17.5t-17 40.5z" />
<glyph unicode="&#xf7;" d="M139 590q0 17 12 28t29 11h492q16 0 27.5 -11t11.5 -28t-11.5 -28t-27.5 -11h-492q-17 0 -29 11t-12 28zM365 324q0 25 17.5 42t43.5 17q25 0 42 -17t17 -42t-17 -42.5t-42 -17.5q-26 0 -43.5 17.5t-17.5 42.5zM365 856q0 25 17.5 42t43.5 17q25 0 42 -17t17 -42t-17 -42 t-42 -17q-26 0 -43.5 17t-17.5 42z" />
<glyph unicode="&#xf8;" horiz-adv-x="790" d="M76 -6l98 168q-20 52 -20 100v410q0 100 70.5 170.5t170.5 70.5q50 0 95.5 -19.5t78.5 -53.5l80 137q8 14 22.5 17.5t28.5 -5.5q14 -8 18 -22.5t-5 -26.5l-99 -168q23 -51 23 -100v-410q0 -100 -71 -171t-171 -71q-33 0 -65.5 9t-59.5 25.5t-49 39.5l-82 -137 q-7 -12 -18 -16.5t-21 -1t-18.5 11.5t-10 19.5t4.5 23.5zM227 252l303 520q-24 31 -59.5 49.5t-75.5 18.5q-69 0 -118.5 -49.5t-49.5 -118.5v-420zM260 162q24 -31 59.5 -49.5t75.5 -18.5q69 0 118.5 49.5t49.5 118.5v420z" />
<glyph unicode="&#xf9;" horiz-adv-x="802" d="M152 270v607q0 15 10.5 25.5t25.5 10.5t26 -10.5t11 -25.5v-607q0 -69 49.5 -118.5t118.5 -49.5h168v775q0 15 11 25.5t26 10.5t26 -10.5t11 -25.5v-811q0 -15 -11 -26t-26 -11h-205q-100 0 -170.5 70.5t-70.5 170.5zM266 1260q-17 14 -10.5 34.5t24.5 26t35 -7.5 l205 -185q12 -9 12.5 -25t-8.5 -26q-11 -11 -26 -11.5t-27 9.5z" />
<glyph unicode="&#xfa;" horiz-adv-x="802" d="M152 270v607q0 15 10.5 25.5t25.5 10.5t26 -10.5t11 -25.5v-607q0 -69 49.5 -118.5t118.5 -49.5h168v775q0 15 11 25.5t26 10.5t26 -10.5t11 -25.5v-811q0 -15 -11 -26t-26 -11h-205q-100 0 -170.5 70.5t-70.5 170.5zM266 1128l205 185q12 10 27 9.5t26 -11.5 q9 -10 8.5 -26t-12.5 -25l-205 -185q-15 -15 -35 -7.5t-24.5 26t10.5 34.5z" />
<glyph unicode="&#xfb;" horiz-adv-x="802" d="M152 270v607q0 15 10.5 25.5t25.5 10.5t26 -10.5t11 -25.5v-607q0 -69 49.5 -118.5t118.5 -49.5h168v775q0 15 11 25.5t26 10.5t26 -10.5t11 -25.5v-811q0 -15 -11 -26t-26 -11h-205q-100 0 -170.5 70.5t-70.5 170.5zM180 1079q-9 12 -7 27t13 24l185 144q24 17 45 0 l184 -144q18 -14 14 -34.5t-21.5 -27.5t-37.5 5q-127 98 -162 125l-162 -125q-10 -9 -26 -7.5t-25 13.5z" />
<glyph unicode="&#xfc;" horiz-adv-x="802" d="M152 270v607q0 15 11 25.5t25 10.5q15 0 26 -10.5t11 -25.5v-607q0 -69 49.5 -118.5t118.5 -49.5h168v775q0 15 11.5 25.5t25.5 10.5q15 0 26 -10.5t11 -25.5v-811q0 -15 -11 -26t-26 -11h-205q-100 0 -170.5 70.5t-70.5 170.5zM172 1184q0 23 17 40t40 17 q25 0 41.5 -16.5t16.5 -40.5t-17 -41t-41 -17q-23 0 -40 17.5t-17 40.5zM500 1184q0 23 17 40t40 17q24 0 40.5 -16.5t16.5 -40.5t-16.5 -41t-40.5 -17q-23 0 -40 17.5t-17 40.5z" />
<glyph unicode="&#xfd;" horiz-adv-x="755" d="M66 -352q0 10 5 18.5t13 13.5t18 5q55 0 101 32q47 37 61 86l76 254l-244 809q-7 20 8.5 34.5t36 11.5t27.5 -25l211 -701l209 701q6 21 27 24.5t36 -10.5t8 -35q-317 -1057 -325 -1083q-21 -72 -86 -125q-65 -47 -146 -47q-15 0 -25.5 11t-10.5 26zM248 1077 q-9 10 -8.5 26t12.5 25l205 185q15 15 35 7.5t24.5 -26t-10.5 -34.5l-205 -185q-12 -10 -27 -9.5t-26 11.5z" />
<glyph unicode="&#xfe;" horiz-adv-x="794" d="M168 -352v1638q0 15 11 26t26 11t26 -11t11 -26v-373h168q100 0 170.5 -70.5t70.5 -170.5v-410q0 -100 -70.5 -171t-170.5 -71h-168v-372q0 -15 -11 -26t-26 -11t-26 11t-11 26zM242 94h168q69 0 118.5 49.5t49.5 118.5v410q0 69 -49.5 118.5t-118.5 49.5h-168v-746z" />
<glyph unicode="&#xff;" horiz-adv-x="755" d="M66 -352q0 7 3 14t7.5 12t11.5 8t14 3q55 0 101 32q47 37 61 86l76 254l-244 809q-5 21 10.5 35t35.5 11t26 -25l211 -701l209 701q6 21 27 24.5t36 -10.5t8 -35q-317 -1057 -325 -1083q-21 -72 -86 -125q-65 -47 -146 -47q-15 0 -25.5 11t-10.5 26zM158 1184 q0 24 16.5 40.5t40.5 16.5q23 0 40 -17t17 -40t-17 -40.5t-40 -17.5q-24 0 -40.5 17t-16.5 41zM485 1183.5q0 23.5 16.5 40.5t41.5 17q23 0 40 -17t17 -40t-17 -40.5t-40 -17.5q-24 0 -41 17t-17 40.5z" />
<glyph unicode="&#x152;" horiz-adv-x="1220" d="M141 303v696q0 119 83.5 202t201.5 83q122 0 207 -88v41q0 17 11 28t28 11h409q16 0 27.5 -11t11.5 -28t-11.5 -28t-27.5 -11h-370v-487h329q16 0 27.5 -11t11.5 -28t-11.5 -28t-27.5 -11h-329v-529h370q16 0 27.5 -10.5t11.5 -27.5t-11.5 -28t-27.5 -11h-409 q-17 0 -28 11t-11 28v40q-85 -88 -207 -88q-118 0 -201.5 83t-83.5 202zM219 303q0 -86 60.5 -146.5t146.5 -60.5q85 0 146 60.5t61 146.5v696q0 86 -61 146.5t-146 60.5q-86 0 -146.5 -60.5t-60.5 -146.5v-696z" />
<glyph unicode="&#x153;" horiz-adv-x="1163" d="M143 262v410q0 100 71 170.5t171 70.5q42 0 81.5 -14t70.5 -39t53 -59q33 52 87 82t118 30q100 0 170.5 -70.5t70.5 -170.5v-205q0 -15 -11 -26t-26 -11h-372v-168q0 -51 28 -93.5t74 -62.5q47 -20 97 -10t87 47q9 9 21 10.5t21 -4.5t15.5 -15t5.5 -20.5t-11 -21.5 q-52 -52 -124 -66.5t-139 13.5q-73 30 -112 94q-33 -52 -87.5 -82.5t-117.5 -30.5q-100 0 -171 71t-71 171zM217 262q0 -69 49.5 -118.5t118.5 -49.5t118.5 49.5t49.5 118.5v410q0 69 -49.5 118.5t-118.5 49.5t-118.5 -49.5t-49.5 -118.5v-410zM627 504h336v168 q0 69 -49.5 118.5t-118.5 49.5t-118.5 -49.5t-49.5 -118.5v-168z" />
<glyph unicode="&#x178;" horiz-adv-x="823" d="M88 1227q-11 21 3 39.5t34.5 17.5t34.5 -20q197 -395 250 -504l252 504q14 19 33.5 20t33 -17t4.5 -40l-282 -565v-605q0 -17 -12 -28t-29 -11q-16 0 -27.5 11t-11.5 28v605zM186 1593q0 25 17.5 42.5t42.5 17.5t43 -17.5t18 -42.5t-18 -42t-43 -17t-42.5 17t-17.5 42z M514 1593q0 25 17 42.5t42 17.5t43.5 -17.5t18.5 -42.5q0 -12 -5 -23t-13.5 -19t-20 -12.5t-23.5 -4.5q-25 0 -42 17t-17 42z" />
<glyph unicode="&#x2c6;" horiz-adv-x="1024" d="M305 1130l184 144q10 8 23.5 8t22.5 -8l184 -144q12 -9 14 -24t-8 -27q-9 -12 -24 -13.5t-27 7.5q-127 98 -162 125l-162 -125q-18 -13 -37 -4t-21.5 27.5t13.5 33.5z" />
<glyph unicode="&#x2dc;" horiz-adv-x="1024" d="M297 1180q36 54 102 68t127 -29l17 -13q31 -22 68.5 -13.5t54.5 36.5q9 12 24 15t27 -5q12 -9 15.5 -24t-5.5 -27q-37 -55 -101.5 -68.5t-127.5 29.5l-17 12q-33 23 -68 14.5t-55 -36.5q-7 -12 -23 -15.5t-28 4.5q-12 9 -15 24.5t5 27.5z" />
<glyph unicode="&#x2000;" horiz-adv-x="886" />
<glyph unicode="&#x2001;" horiz-adv-x="1772" />
<glyph unicode="&#x2002;" horiz-adv-x="886" />
<glyph unicode="&#x2003;" horiz-adv-x="1772" />
<glyph unicode="&#x2004;" horiz-adv-x="590" />
<glyph unicode="&#x2005;" horiz-adv-x="443" />
<glyph unicode="&#x2006;" horiz-adv-x="295" />
<glyph unicode="&#x2007;" horiz-adv-x="295" />
<glyph unicode="&#x2008;" horiz-adv-x="221" />
<glyph unicode="&#x2009;" horiz-adv-x="354" />
<glyph unicode="&#x200a;" horiz-adv-x="98" />
<glyph unicode="&#x2010;" d="M139 590q0 17 12 28t29 11h492q16 0 27.5 -11t11.5 -28t-11.5 -28t-27.5 -11h-492q-17 0 -29 11t-12 28z" />
<glyph unicode="&#x2011;" d="M139 590q0 17 12 28t29 11h492q16 0 27.5 -11t11.5 -28t-11.5 -28t-27.5 -11h-492q-17 0 -29 11t-12 28z" />
<glyph unicode="&#x2012;" d="M139 590q0 17 12 28t29 11h492q16 0 27.5 -11t11.5 -28t-11.5 -28t-27.5 -11h-492q-17 0 -29 11t-12 28z" />
<glyph unicode="&#x2013;" horiz-adv-x="1024" d="M-39 590q0 17 11.5 28t27.5 11h1024q17 0 28 -11t11 -28t-11 -28t-28 -11h-1024q-16 0 -27.5 11t-11.5 28z" />
<glyph unicode="&#x2014;" horiz-adv-x="2048" d="M-39 590q0 17 11.5 28t27.5 11h2048q17 0 28 -11t11 -28t-11 -28t-28 -11h-2048q-16 0 -27.5 11t-11.5 28z" />
<glyph unicode="&#x2018;" horiz-adv-x="393" d="M125 1049v98q0 43 24 79.5t64 53.5q21 8 37 -5.5t15 -34.5t-21 -30q-43 -16 -43 -63v-62h28q15 0 26 -10.5t11 -25.5t-11 -26t-26 -11h-65q-17 0 -28 11t-11 26z" />
<glyph unicode="&#x2019;" horiz-adv-x="393" d="M125 1237q0 15 11 26t28 11h65q15 0 26 -11t11 -26v-98q0 -43 -24 -79.5t-64 -53.5q-21 -8 -37 5.5t-15 34t21 29.5q43 16 43 64v61h-26q-17 0 -28 11t-11 26z" />
<glyph unicode="&#x201a;" horiz-adv-x="391" d="M125 98q0 15 11 26t28 11h65q15 0 26 -11t11 -26v-98q0 -43 -24 -79.5t-64 -53.5q-21 -8 -37 5.5t-15 34.5t21 30q43 16 43 63v61h-26q-17 0 -28 11t-11 26z" />
<glyph unicode="&#x201c;" horiz-adv-x="759" d="M125 1049v98q0 43 24 79.5t64 53.5q21 9 36.5 -4.5t14.5 -35t-22 -30.5q-43 -16 -43 -63v-62h28q15 0 26 -10.5t11 -25.5t-11 -26t-26 -11h-65q-15 0 -26 11t-11 26zM494 1049v98q0 43 24 79.5t64 53.5q21 9 36.5 -4.5t14 -35t-22.5 -30.5q-13 -5 -23 -14.5t-15 -22 t-5 -26.5v-62h29q10 0 18.5 -5t13.5 -13t5 -18q0 -15 -11 -26t-26 -11h-66q-15 0 -25.5 11t-10.5 26z" />
<glyph unicode="&#x201d;" horiz-adv-x="761" d="M127 1237q0 10 5 18.5t13.5 13.5t18.5 5h65q15 0 26 -11t11 -26v-98q0 -43 -24 -79.5t-64 -53.5q-21 -9 -36.5 4.5t-14 34.5t22.5 30q43 16 43 64v61h-29q-15 0 -26 11t-11 26zM496 1237q0 10 5 18.5t13 13.5t18 5h66q15 0 26 -11t11 -26v-98q0 -43 -24 -79.5t-64 -53.5 q-20 -9 -36 4.5t-15 34.5t22 30q13 5 23 14.5t15 22.5t5 27v61h-29q-15 0 -25.5 11t-10.5 26z" />
<glyph unicode="&#x201e;" horiz-adv-x="761" d="M127 98q0 15 11 26t26 11h65q15 0 26 -11t11 -26v-98q0 -43 -24 -79.5t-64 -53.5q-21 -9 -36.5 4.5t-14 35t22.5 30.5q43 16 43 63v61h-29q-15 0 -26 11t-11 26zM496 98q0 10 5 18.5t13 13.5t18 5h66q15 0 26 -11t11 -26v-98q0 -43 -24 -79.5t-64 -53.5q-21 -9 -36.5 4.5 t-14.5 35t22 30.5q20 7 31.5 24t11.5 39v61h-29q-15 0 -25.5 11t-10.5 26z" />
<glyph unicode="&#x2022;" horiz-adv-x="524" d="M84 578q0 74 52 126t126 52t127 -52.5t53 -125.5t-53 -126t-127 -53q-73 0 -125.5 52.5t-52.5 126.5zM156 578q0 -45 31 -77t75 -32t76.5 32.5t32.5 76.5t-32.5 76t-76.5 32t-75 -32t-31 -76z" />
<glyph unicode="&#x2026;" horiz-adv-x="1179" d="M121 78q0 25 17 42t42 17q26 0 44 -17t18 -42t-18 -42.5t-44 -17.5q-25 0 -42 17.5t-17 42.5zM530 78q0 25 17.5 42t42.5 17q26 0 43.5 -17t17.5 -42t-17.5 -42.5t-43.5 -17.5q-25 0 -42.5 17.5t-17.5 42.5zM940 78q0 25 17 42t42 17q26 0 44 -17t18 -42t-18 -42.5 t-44 -17.5q-25 0 -42 17.5t-17 42.5z" />
<glyph unicode="&#x202f;" horiz-adv-x="354" />
<glyph unicode="&#x2039;" horiz-adv-x="489" d="M131 578q-13 19 0 38l131 238q8 14 23 18.5t30 -2.5q21 -14 21 -34q0 -19 -127 -238l42 -76q42 -75 67.5 -123t25.5 -55q0 -22 -20 -35q-15 -8 -31 -3t-23 20z" />
<glyph unicode="&#x203a;" horiz-adv-x="489" d="M147 344q0 7 28 59t63 115t43 80q-7 13 -41 74t-59 108.5t-25 55.5q0 21 20 34q14 7 29.5 2.5t23.5 -18.5l131 -238q10 -19 0 -38l-139 -252q-7 -15 -23.5 -20t-29.5 3q-21 14 -21 35z" />
<glyph unicode="&#x205f;" horiz-adv-x="443" />
<glyph unicode="&#x20ac;" d="M61 487q0 17 12 28t29 11h123v250h-123q-11 0 -20.5 5t-15 14t-5.5 20q0 17 12 28t29 11h123v145q0 48 16 93t43.5 81t67.5 62.5t86 38.5q46 14 93 10t89.5 -21t78.5 -48t59 -72l20 -37q6 -13 4.5 -25t-10.5 -20t-20 -11.5t-22.5 1t-18.5 16.5l-21 35q-35 61 -99 88 t-132 8q-67 -17 -110.5 -73.5t-43.5 -125.5v-145h289q16 0 27.5 -11t11.5 -28t-11.5 -28t-27.5 -11h-289v-250h207q16 0 27.5 -11t11.5 -28t-11.5 -27.5t-27.5 -10.5h-207v-146q0 -70 43 -126t111 -73q67 -19 131.5 8t99.5 89l21 35q14 19 33.5 19t32.5 -18.5t1 -39.5 l-20 -37q-47 -83 -137.5 -120.5t-182.5 -12.5q-94 26 -153.5 103t-59.5 173v146h-123q-18 0 -29.5 10.5t-11.5 27.5z" />
<glyph unicode="&#x2122;" horiz-adv-x="1372" d="M80 1237q0 15 11 26t26 11h409q15 0 27 -11t12 -26t-12 -26t-27 -11h-166v-569q0 -15 -11.5 -26t-26.5 -11t-26 11t-11 26v569h-168q-15 0 -26 11t-11 26zM735 631v614q0 28 27 35q11 4 23 0.5t18 -12.5q131 -185 174 -246l174 246q18 21 43 12q11 -3 19 -13t8 -22v-614 q0 -15 -12 -26t-27 -11t-26 11t-11 26v497l-137 -192q-10 -14 -31 -14q-17 0 -31 14q-76 108 -135 192v-497q0 -15 -12 -26t-27 -11t-26 11t-11 26z" />
<glyph unicode="&#xe000;" horiz-adv-x="911" d="M0 0v911h911v-911h-911z" />
</font>
</defs>
</svg>
